Groote-Italic-Corsyf-26.ufo
<glyph name="ampersand" format="2">
  <advance width="1117"/>
  <unicode hex="0026"/>
  <outline>
    <contour>
      <point x="473" y="-95" type="curve" smooth="yes"/>
      <point x="669" y="-95"/>
      <point x="857" y="20"/>
      <point x="911" y="195" type="curve" smooth="yes"/>
      <point x="928" y="253"/>
      <point x="927" y="339"/>
      <point x="908" y="411" type="curve" smooth="yes"/>
      <point x="904" y="425"/>
      <point x="895" y="432"/>
      <point x="881" y="433" type="curve" smooth="yes"/>
      <point x="866" y="434" type="line" smooth="yes"/>
      <point x="847" y="436"/>
      <point x="849" y="425"/>
      <point x="855" y="407" type="curve" smooth="yes"/>
      <point x="880" y="330"/>
      <point x="893" y="244"/>
      <point x="873" y="177" type="curve" smooth="yes"/>
      <point x="833" y="46"/>
      <point x="696" y="-46"/>
      <point x="548" y="-46" type="curve" smooth="yes"/>
      <point x="309" y="-46"/>
      <point x="171" y="100"/>
      <point x="227" y="284" type="curve" smooth="yes"/>
      <point x="250" y="358"/>
      <point x="312" y="390"/>
      <point x="372" y="390" type="curve" smooth="yes"/>
      <point x="421" y="390"/>
      <point x="451" y="372"/>
      <point x="445" y="353" type="curve" smooth="yes"/>
      <point x="438" y="331"/>
      <point x="398" y="315"/>
      <point x="356" y="315" type="curve" smooth="yes"/>
      <point x="271" y="315"/>
      <point x="224" y="432"/>
      <point x="270" y="583" type="curve" smooth="yes"/>
      <point x="292" y="654"/>
      <point x="363" y="704"/>
      <point x="422" y="704" type="curve" smooth="yes"/>
      <point x="474" y="704"/>
      <point x="534" y="675"/>
      <point x="549" y="639" type="curve" smooth="yes"/>
      <point x="556" y="623"/>
      <point x="565" y="617"/>
      <point x="580" y="623" type="curve" smooth="yes"/>
      <point x="634" y="644" type="line" smooth="yes"/>
      <point x="648" y="650"/>
      <point x="655" y="659"/>
      <point x="653" y="673" type="curve" smooth="yes"/>
      <point x="645" y="725"/>
      <point x="602" y="759"/>
      <point x="545" y="759" type="curve" smooth="yes"/>
      <point x="394" y="759"/>
      <point x="260" y="668"/>
      <point x="221" y="540" type="curve" smooth="yes"/>
      <point x="173" y="383"/>
      <point x="217" y="272"/>
      <point x="328" y="272" type="curve" smooth="yes"/>
      <point x="402" y="272"/>
      <point x="482" y="325"/>
      <point x="502" y="389" type="curve" smooth="yes"/>
      <point x="513" y="425"/>
      <point x="485" y="450"/>
      <point x="433" y="450" type="curve" smooth="yes"/>
      <point x="325" y="450"/>
      <point x="194" y="347"/>
      <point x="154" y="215" type="curve" smooth="yes"/>
      <point x="97" y="28"/>
      <point x="229" y="-95"/>
    </contour>
    <contour>
      <point x="684" y="245" type="curve"/>
      <point x="708" y="272"/>
      <point x="729" y="276"/>
      <point x="751" y="301" type="curve" smooth="yes"/>
      <point x="764" y="316"/>
      <point x="759" y="328"/>
      <point x="738" y="331" type="curve" smooth="yes"/>
      <point x="666" y="342"/>
      <point x="604" y="384"/>
      <point x="610" y="405" type="curve" smooth="yes"/>
      <point x="618" y="433"/>
      <point x="651" y="453"/>
      <point x="687" y="453" type="curve" smooth="yes"/>
      <point x="720" y="453"/>
      <point x="921" y="386"/>
      <point x="963" y="386" type="curve" smooth="yes"/>
      <point x="1015" y="386"/>
      <point x="1095" y="463"/>
      <point x="1128" y="573" type="curve" smooth="yes"/>
      <point x="1155" y="660"/>
      <point x="1106" y="718"/>
      <point x="1017" y="725" type="curve" smooth="yes"/>
      <point x="1003" y="726"/>
      <point x="996" y="721"/>
      <point x="985" y="713" type="curve" smooth="yes"/>
      <point x="920" y="666" type="line" smooth="yes"/>
      <point x="901" y="652"/>
      <point x="928" y="636"/>
      <point x="928" y="636" type="curve"/>
      <point x="1028" y="636"/>
      <point x="1100" y="579"/>
      <point x="1085" y="531" type="curve" smooth="yes"/>
      <point x="1071" y="484"/>
      <point x="1041" y="451"/>
      <point x="1013" y="451" type="curve" smooth="yes"/>
      <point x="991" y="451"/>
      <point x="850" y="501"/>
      <point x="816" y="501" type="curve" smooth="yes"/>
      <point x="716" y="501"/>
      <point x="606" y="475"/>
      <point x="578" y="381" type="curve" smooth="yes"/>
      <point x="557" y="315"/>
      <point x="603" y="260"/>
    </contour>
  </outline>
</glyph>
<glyph name="asterisk" format="2">
  <advance width="742"/>
  <unicode hex="002A"/>
  <outline>
    <contour>
      <point x="361" y="330" type="curve"/>
      <point x="380" y="330" type="line"/>
      <point x="380" y="349"/>
      <point x="433" y="462"/>
      <point x="433" y="504" type="curve" smooth="yes"/>
      <point x="433" y="548"/>
      <point x="405" y="579"/>
      <point x="364" y="579" type="curve" smooth="yes"/>
      <point x="324" y="579"/>
      <point x="295" y="549"/>
      <point x="295" y="507" type="curve" smooth="yes"/>
      <point x="295" y="473"/>
      <point x="361" y="351"/>
    </contour>
    <contour>
      <point x="375" y="366" type="curve" smooth="yes"/>
      <point x="375" y="363"/>
      <point x="369" y="366"/>
      <point x="365" y="366" type="curve"/>
      <point x="365" y="390"/>
      <point x="323" y="479"/>
      <point x="323" y="503" type="curve" smooth="yes"/>
      <point x="323" y="541"/>
      <point x="346" y="552"/>
      <point x="362" y="552" type="curve" smooth="yes"/>
      <point x="382" y="552"/>
      <point x="406" y="541"/>
      <point x="406" y="504" type="curve" smooth="yes"/>
      <point x="406" y="468"/>
      <point x="375" y="390"/>
    </contour>
    <contour>
      <point x="424" y="313" type="curve"/>
      <point x="437" y="300" type="line"/>
      <point x="451" y="314"/>
      <point x="568" y="356"/>
      <point x="598" y="386" type="curve" smooth="yes"/>
      <point x="629" y="417"/>
      <point x="631" y="459"/>
      <point x="602" y="488" type="curve" smooth="yes"/>
      <point x="574" y="516"/>
      <point x="532" y="515"/>
      <point x="502" y="485" type="curve" smooth="yes"/>
      <point x="479" y="462"/>
      <point x="439" y="329"/>
    </contour>
    <contour>
      <point x="460" y="329" type="curve" smooth="yes"/>
      <point x="458" y="327"/>
      <point x="455" y="334"/>
      <point x="453" y="336" type="curve"/>
      <point x="469" y="353"/>
      <point x="502" y="446"/>
      <point x="520" y="463" type="curve" smooth="yes"/>
      <point x="546" y="489"/>
      <point x="570" y="481"/>
      <point x="581" y="470" type="curve" smooth="yes"/>
      <point x="596" y="456"/>
      <point x="605" y="431"/>
      <point x="579" y="405" type="curve" smooth="yes"/>
      <point x="553" y="380"/>
      <point x="476" y="346"/>
    </contour>
    <contour>
      <point x="454" y="254" type="curve"/>
      <point x="454" y="235" type="line"/>
      <point x="473" y="235"/>
      <point x="586" y="182"/>
      <point x="628" y="182" type="curve" smooth="yes"/>
      <point x="672" y="182"/>
      <point x="703" y="210"/>
      <point x="703" y="251" type="curve" smooth="yes"/>
      <point x="703" y="291"/>
      <point x="673" y="320"/>
      <point x="631" y="320" type="curve" smooth="yes"/>
      <point x="597" y="320"/>
      <point x="475" y="254"/>
    </contour>
    <contour>
      <point x="490" y="240" type="curve" smooth="yes"/>
      <point x="487" y="240"/>
      <point x="490" y="246"/>
      <point x="490" y="250" type="curve"/>
      <point x="514" y="250"/>
      <point x="603" y="292"/>
      <point x="627" y="292" type="curve" smooth="yes"/>
      <point x="665" y="292"/>
      <point x="676" y="269"/>
      <point x="676" y="253" type="curve" smooth="yes"/>
      <point x="676" y="233"/>
      <point x="665" y="209"/>
      <point x="628" y="209" type="curve" smooth="yes"/>
      <point x="592" y="209"/>
      <point x="514" y="240"/>
    </contour>
    <contour>
      <point x="437" y="194" type="curve"/>
      <point x="424" y="181" type="line"/>
      <point x="438" y="167"/>
      <point x="480" y="49"/>
      <point x="510" y="19" type="curve" smooth="yes"/>
      <point x="541" y="-12"/>
      <point x="583" y="-14"/>
      <point x="612" y="15" type="curve" smooth="yes"/>
      <point x="640" y="44"/>
      <point x="639" y="85"/>
      <point x="609" y="115" type="curve" smooth="yes"/>
      <point x="586" y="139"/>
      <point x="453" y="178"/>
    </contour>
    <contour>
      <point x="453" y="158" type="curve" smooth="yes"/>
      <point x="451" y="160"/>
      <point x="458" y="162"/>
      <point x="460" y="165" type="curve"/>
      <point x="477" y="148"/>
      <point x="570" y="115"/>
      <point x="587" y="98" type="curve" smooth="yes"/>
      <point x="613" y="71"/>
      <point x="605" y="47"/>
      <point x="594" y="36" type="curve" smooth="yes"/>
      <point x="580" y="22"/>
      <point x="555" y="13"/>
      <point x="529" y="39" type="curve" smooth="yes"/>
      <point x="504" y="64"/>
      <point x="470" y="141"/>
    </contour>
    <contour>
      <point x="381" y="163" type="curve"/>
      <point x="363" y="163" type="line"/>
      <point x="363" y="143"/>
      <point x="309" y="31"/>
      <point x="309" y="-12" type="curve" smooth="yes"/>
      <point x="309" y="-56"/>
      <point x="338" y="-87"/>
      <point x="378" y="-87" type="curve" smooth="yes"/>
      <point x="419" y="-87"/>
      <point x="447" y="-57"/>
      <point x="447" y="-14" type="curve" smooth="yes"/>
      <point x="447" y="19"/>
      <point x="381" y="141"/>
    </contour>
    <contour>
      <point x="367" y="126" type="curve" smooth="yes"/>
      <point x="367" y="129"/>
      <point x="374" y="126"/>
      <point x="377" y="126" type="curve"/>
      <point x="377" y="103"/>
      <point x="419" y="14"/>
      <point x="419" y="-11" type="curve" smooth="yes"/>
      <point x="419" y="-48"/>
      <point x="396" y="-59"/>
      <point x="381" y="-59" type="curve" smooth="yes"/>
      <point x="360" y="-59"/>
      <point x="337" y="-49"/>
      <point x="337" y="-12" type="curve" smooth="yes"/>
      <point x="337" y="24"/>
      <point x="367" y="103"/>
    </contour>
    <contour>
      <point x="319" y="179" type="curve"/>
      <point x="306" y="192" type="line"/>
      <point x="292" y="178"/>
      <point x="174" y="137"/>
      <point x="144" y="107" type="curve" smooth="yes"/>
      <point x="113" y="75"/>
      <point x="111" y="33"/>
      <point x="140" y="5" type="curve" smooth="yes"/>
      <point x="169" y="-24"/>
      <point x="210" y="-23"/>
      <point x="240" y="7" type="curve" smooth="yes"/>
      <point x="264" y="31"/>
      <point x="303" y="164"/>
    </contour>
    <contour>
      <point x="283" y="163" type="curve" smooth="yes"/>
      <point x="285" y="165"/>
      <point x="287" y="159"/>
      <point x="290" y="156" type="curve"/>
      <point x="273" y="139"/>
      <point x="240" y="47"/>
      <point x="223" y="30" type="curve" smooth="yes"/>
      <point x="196" y="3"/>
      <point x="172" y="12"/>
      <point x="161" y="22" type="curve" smooth="yes"/>
      <point x="147" y="37"/>
      <point x="138" y="61"/>
      <point x="164" y="87" type="curve" smooth="yes"/>
      <point x="189" y="113"/>
      <point x="266" y="147"/>
    </contour>
    <contour>
      <point x="289" y="239" type="curve"/>
      <point x="289" y="257" type="line"/>
      <point x="269" y="257"/>
      <point x="157" y="311"/>
      <point x="114" y="311" type="curve" smooth="yes"/>
      <point x="70" y="311"/>
      <point x="39" y="282"/>
      <point x="39" y="242" type="curve" smooth="yes"/>
      <point x="39" y="201"/>
      <point x="69" y="173"/>
      <point x="112" y="173" type="curve" smooth="yes"/>
      <point x="145" y="173"/>
      <point x="267" y="239"/>
    </contour>
    <contour>
      <point x="252" y="253" type="curve" smooth="yes"/>
      <point x="255" y="253"/>
      <point x="252" y="246"/>
      <point x="252" y="243" type="curve"/>
      <point x="229" y="243"/>
      <point x="140" y="201"/>
      <point x="115" y="201" type="curve" smooth="yes"/>
      <point x="78" y="201"/>
      <point x="67" y="224"/>
      <point x="67" y="239" type="curve" smooth="yes"/>
      <point x="67" y="260"/>
      <point x="77" y="283"/>
      <point x="114" y="283" type="curve" smooth="yes"/>
      <point x="150" y="283"/>
      <point x="229" y="253"/>
    </contour>
    <contour>
      <point x="305" y="299" type="curve"/>
      <point x="318" y="312" type="line"/>
      <point x="304" y="326"/>
      <point x="263" y="443"/>
      <point x="233" y="473" type="curve" smooth="yes"/>
      <point x="201" y="504"/>
      <point x="159" y="506"/>
      <point x="131" y="477" type="curve" smooth="yes"/>
      <point x="102" y="449"/>
      <point x="103" y="407"/>
      <point x="133" y="377" type="curve" smooth="yes"/>
      <point x="157" y="354"/>
      <point x="290" y="314"/>
    </contour>
    <contour>
      <point x="289" y="335" type="curve" smooth="yes"/>
      <point x="291" y="333"/>
      <point x="285" y="330"/>
      <point x="282" y="328" type="curve"/>
      <point x="265" y="344"/>
      <point x="173" y="377"/>
      <point x="156" y="395" type="curve" smooth="yes"/>
      <point x="129" y="421"/>
      <point x="138" y="445"/>
      <point x="148" y="456" type="curve" smooth="yes"/>
      <point x="163" y="471"/>
      <point x="187" y="480"/>
      <point x="213" y="454" type="curve" smooth="yes"/>
      <point x="239" y="428"/>
      <point x="273" y="351"/>
    </contour>
  </outline>
</glyph>
<glyph name="comma" format="2">
  <advance width="313"/>
  <unicode hex="002C"/>
  <outline>
    <contour>
      <point x="35" y="-187" type="curve"/>
      <point x="35" y="-208" type="line"/>
      <point x="115" y="-152"/>
      <point x="182" y="-70"/>
      <point x="196" y="-11" type="curve" smooth="yes"/>
      <point x="217" y="83"/>
      <point x="189" y="149"/>
      <point x="125" y="149" type="curve" smooth="yes"/>
      <point x="91" y="149"/>
      <point x="61" y="127"/>
      <point x="54" y="95" type="curve" smooth="yes"/>
      <point x="46" y="57"/>
      <point x="60" y="30"/>
      <point x="88" y="30" type="curve" smooth="yes"/>
      <point x="132" y="30"/>
      <point x="165" y="-7"/>
      <point x="153" y="-59" type="curve" smooth="yes"/>
      <point x="146" y="-88"/>
      <point x="97" y="-142"/>
    </contour>
  </outline>
</glyph>
<glyph name="period" format="2">
  <advance width="254"/>
  <unicode hex="002E"/>
  <outline>
    <contour>
      <point x="86" y="-4" type="curve" smooth="yes"/>
      <point x="118" y="-4"/>
      <point x="144" y="28"/>
      <point x="144" y="67" type="curve" smooth="yes"/>
      <point x="144" y="106"/>
      <point x="118" y="138"/>
      <point x="86" y="138" type="curve" smooth="yes"/>
      <point x="54" y="138"/>
      <point x="28" y="106"/>
      <point x="28" y="67" type="curve" smooth="yes"/>
      <point x="28" y="28"/>
      <point x="54" y="-4"/>
    </contour>
  </outline>
</glyph>
<glyph name="colon" format="2">
  <advance width="272"/>
  <unicode hex="003A"/>
  <outline>
    <contour>
      <point x="157" y="348" type="curve" smooth="yes"/>
      <point x="192" y="340"/>
      <point x="232" y="357"/>
      <point x="245" y="387" type="curve" smooth="yes"/>
      <point x="258" y="415"/>
      <point x="238" y="445"/>
      <point x="202" y="453" type="curve" smooth="yes"/>
      <point x="166" y="461"/>
      <point x="126" y="444"/>
      <point x="114" y="415" type="curve" smooth="yes"/>
      <point x="101" y="386"/>
      <point x="120" y="356"/>
    </contour>
    <contour>
      <point x="69" y="8" type="curve" smooth="yes"/>
      <point x="104" y="0"/>
      <point x="144" y="17"/>
      <point x="157" y="47" type="curve" smooth="yes"/>
      <point x="169" y="75"/>
      <point x="149" y="105"/>
      <point x="114" y="113" type="curve" smooth="yes"/>
      <point x="78" y="121"/>
      <point x="38" y="104"/>
      <point x="25" y="75" type="curve" smooth="yes"/>
      <point x="12" y="46"/>
      <point x="31" y="16"/>
    </contour>
  </outline>
</glyph>
<glyph name="semicolon" format="2">
  <advance width="342"/>
  <unicode hex="003B"/>
  <outline>
    <contour>
      <point x="4" y="-109" type="curve"/>
      <point x="-5" y="-132" type="line"/>
      <point x="80" y="-103"/>
      <point x="152" y="-45"/>
      <point x="183" y="7" type="curve" smooth="yes"/>
      <point x="231" y="90"/>
      <point x="229" y="162"/>
      <point x="177" y="183" type="curve" smooth="yes"/>
      <point x="149" y="193"/>
      <point x="119" y="181"/>
      <point x="102" y="152" type="curve" smooth="yes"/>
      <point x="82" y="119"/>
      <point x="85" y="89"/>
      <point x="109" y="80" type="curve" smooth="yes"/>
      <point x="144" y="66"/>
      <point x="170" y="23"/>
      <point x="143" y="-23" type="curve" smooth="yes"/>
      <point x="127" y="-49"/>
      <point x="69" y="-85"/>
    </contour>
    <contour>
      <point x="177" y="348" type="curve" smooth="yes"/>
      <point x="212" y="340"/>
      <point x="252" y="357"/>
      <point x="265" y="387" type="curve" smooth="yes"/>
      <point x="278" y="415"/>
      <point x="258" y="445"/>
      <point x="222" y="453" type="curve" smooth="yes"/>
      <point x="186" y="461"/>
      <point x="146" y="444"/>
      <point x="134" y="415" type="curve" smooth="yes"/>
      <point x="121" y="386"/>
      <point x="140" y="356"/>
    </contour>
  </outline>
</glyph>
<glyph name="A" format="2">
  <advance width="664"/>
  <unicode hex="0041"/>
  <anchor x="403" y="635" name="top"/>
  <anchor x="266" y="0" name="bottom"/>
  <anchor x="535" y="10" name="ogonek"/>
  <outline>
    <contour>
      <point x="329" y="-2" type="line"/>
      <point x="596" y="0" type="line"/>
      <point x="602" y="18" type="line"/>
      <point x="582" y="18" type="line" smooth="yes"/>
      <point x="554" y="18"/>
      <point x="524" y="62"/>
      <point x="521" y="124" type="curve" smooth="yes"/>
      <point x="482" y="679" type="line"/>
      <point x="482" y="719" type="line"/>
      <point x="470" y="728" type="line"/>
      <point x="449" y="716"/>
      <point x="418" y="704"/>
      <point x="382" y="700" type="curve"/>
      <point x="374" y="666" type="line"/>
      <point x="399" y="659" type="line"/>
      <point x="419" y="388"/>
      <point x="435" y="142"/>
      <point x="438" y="79" type="curve" smooth="yes"/>
      <point x="439" y="42"/>
      <point x="418" y="16"/>
      <point x="389" y="16" type="curve" smooth="yes"/>
      <point x="336" y="16" type="line"/>
    </contour>
    <contour>
      <point x="-52" y="1" type="line"/>
      <point x="202" y="1" type="line"/>
      <point x="208" y="18" type="line"/>
      <point x="202" y="18"/>
      <point x="206" y="19"/>
      <point x="191" y="19" type="curve" smooth="yes"/>
      <point x="146" y="19"/>
      <point x="127" y="49"/>
      <point x="144" y="91" type="curve"/>
      <point x="412" y="660" type="line"/>
      <point x="381" y="686" type="line"/>
      <point x="275" y="480"/>
      <point x="158" y="230"/>
      <point x="99" y="95" type="curve" smooth="yes"/>
      <point x="79" y="50"/>
      <point x="40" y="19"/>
      <point x="3" y="19" type="curve" smooth="yes"/>
      <point x="-46" y="19" type="line"/>
    </contour>
    <contour>
      <point x="214" y="288" type="line"/>
      <point x="479" y="288" type="line"/>
      <point x="490" y="338" type="line"/>
      <point x="225" y="338" type="line"/>
    </contour>
  </outline>
</glyph>
<glyph name="B" format="2">
  <advance width="588"/>
  <unicode hex="0042"/>
  <outline>
    <contour>
      <point x="-19" y="0" type="line"/>
      <point x="16" y="0"/>
      <point x="47" y="2"/>
      <point x="90" y="2" type="curve" smooth="yes"/>
      <point x="134" y="2"/>
      <point x="240" y="0"/>
      <point x="284" y="0" type="curve" smooth="yes"/>
      <point x="400" y="0"/>
      <point x="500" y="78"/>
      <point x="525" y="188" type="curve" smooth="yes"/>
      <point x="551" y="299"/>
      <point x="471" y="377"/>
      <point x="334" y="377" type="curve" smooth="yes"/>
      <point x="204" y="377" type="line"/>
      <point x="194" y="336" type="line"/>
      <point x="237" y="336"/>
      <point x="288" y="336"/>
      <point x="324" y="336" type="curve" smooth="yes"/>
      <point x="397" y="336"/>
      <point x="435" y="273"/>
      <point x="414" y="185" type="curve" smooth="yes"/>
      <point x="393" y="95"/>
      <point x="331" y="31"/>
      <point x="265" y="31" type="curve" smooth="yes"/>
      <point x="202" y="31"/>
      <point x="161" y="57"/>
      <point x="170" y="94" type="curve" smooth="yes"/>
      <point x="302" y="669" type="line"/>
      <point x="327" y="669"/>
      <point x="366" y="669"/>
      <point x="393" y="669" type="curve" smooth="yes"/>
      <point x="455" y="669"/>
      <point x="486" y="609"/>
      <point x="466" y="523" type="curve" smooth="yes"/>
      <point x="446" y="437"/>
      <point x="375" y="377"/>
      <point x="294" y="377" type="curve"/>
      <point x="287" y="344" type="line"/>
      <point x="426" y="344"/>
      <point x="544" y="426"/>
      <point x="570" y="541" type="curve" smooth="yes"/>
      <point x="591" y="629"/>
      <point x="522" y="694"/>
      <point x="405" y="699" type="curve"/>
      <point x="408" y="698"/>
      <point x="349" y="698"/>
      <point x="264" y="698" type="curve" smooth="yes"/>
      <point x="240" y="698"/>
      <point x="150" y="700"/>
      <point x="135" y="700" type="curve"/>
      <point x="129" y="682" type="line"/>
      <point x="136" y="682"/>
      <point x="142" y="682"/>
      <point x="151" y="682" type="curve" smooth="yes"/>
      <point x="190" y="682"/>
      <point x="212" y="657"/>
      <point x="204" y="621" type="curve" smooth="yes"/>
      <point x="193" y="572"/>
      <point x="87" y="94"/>
      <point x="79" y="61" type="curve" smooth="yes"/>
      <point x="74" y="36"/>
      <point x="48" y="18"/>
      <point x="18" y="18" type="curve" smooth="yes"/>
      <point x="-13" y="18" type="line"/>
    </contour>
  </outline>
</glyph>
<glyph name="C" format="2">
  <advance width="668"/>
  <unicode hex="0043"/>
  <outline>
    <contour>
      <point x="320" y="-8" type="curve" smooth="yes"/>
      <point x="419" y="-8"/>
      <point x="528" y="44"/>
      <point x="595" y="118" type="curve"/>
      <point x="628" y="249" type="line"/>
      <point x="619" y="251" type="line"/>
      <point x="578" y="124"/>
      <point x="461" y="34"/>
      <point x="349" y="34" type="curve" smooth="yes"/>
      <point x="208" y="34"/>
      <point x="137" y="192"/>
      <point x="188" y="415" type="curve" smooth="yes"/>
      <point x="225" y="574"/>
      <point x="342" y="687"/>
      <point x="458" y="687" type="curve" smooth="yes"/>
      <point x="566" y="687"/>
      <point x="652" y="624"/>
      <point x="651" y="536" type="curve"/>
      <point x="662" y="536" type="line"/>
      <point x="693" y="707" type="line"/>
      <point x="680" y="707" type="line"/>
      <point x="671" y="689"/>
      <point x="649" y="677"/>
      <point x="641" y="677" type="curve"/>
      <point x="609" y="705"/>
      <point x="530" y="725"/>
      <point x="466" y="725" type="curve" smooth="yes"/>
      <point x="276" y="725"/>
      <point x="118" y="573"/>
      <point x="68" y="359" type="curve" smooth="yes"/>
      <point x="19" y="144"/>
      <point x="129" y="-8"/>
    </contour>
  </outline>
</glyph>
<glyph name="D" format="2">
  <advance width="706"/>
  <unicode hex="0044"/>
  <outline>
    <contour>
      <point x="-26" y="-3" type="line"/>
      <point x="27" y="-1"/>
      <point x="93" y="0"/>
      <point x="131" y="0" type="curve" smooth="yes"/>
      <point x="180" y="0"/>
      <point x="241" y="-3"/>
      <point x="298" y="-3" type="curve" smooth="yes"/>
      <point x="488" y="-3"/>
      <point x="661" y="160"/>
      <point x="714" y="390" type="curve" smooth="yes"/>
      <point x="756" y="573"/>
      <point x="663" y="702"/>
      <point x="488" y="702" type="curve" smooth="yes"/>
      <point x="435" y="702"/>
      <point x="314" y="700"/>
      <point x="288" y="700" type="curve" smooth="yes"/>
      <point x="263" y="700"/>
      <point x="219" y="702"/>
      <point x="207" y="702" type="curve" smooth="yes"/>
      <point x="145" y="702" type="line"/>
      <point x="138" y="682" type="line"/>
      <point x="149" y="682"/>
      <point x="149" y="682"/>
      <point x="172" y="682" type="curve" smooth="yes"/>
      <point x="216" y="682"/>
      <point x="239" y="646"/>
      <point x="227" y="596" type="curve" smooth="yes"/>
      <point x="212" y="529"/>
      <point x="130" y="163"/>
      <point x="122" y="132" type="curve" smooth="yes"/>
      <point x="108" y="71"/>
      <point x="62" y="17"/>
      <point x="11" y="17" type="curve" smooth="yes"/>
      <point x="-19" y="17" type="line"/>
    </contour>
    <contour>
      <point x="312" y="22" type="curve" smooth="yes"/>
      <point x="238" y="22"/>
      <point x="190" y="63"/>
      <point x="202" y="107" type="curve"/>
      <point x="331" y="676" type="line"/>
      <point x="369" y="676"/>
      <point x="422" y="676"/>
      <point x="452" y="676" type="curve" smooth="yes"/>
      <point x="574" y="676"/>
      <point x="641" y="546"/>
      <point x="600" y="368" type="curve" smooth="yes"/>
      <point x="554" y="168"/>
      <point x="430" y="22"/>
    </contour>
  </outline>
</glyph>
<glyph name="E" format="2">
  <advance width="561"/>
  <unicode hex="0045"/>
  <outline>
    <contour>
      <point x="211" y="-1" type="curve" smooth="yes"/>
      <point x="421" y="-1" type="line"/>
      <point x="521" y="143" type="line"/>
      <point x="513" y="158" type="line"/>
      <point x="457" y="82"/>
      <point x="391" y="24"/>
      <point x="353" y="24" type="curve" smooth="yes"/>
      <point x="336" y="24"/>
      <point x="200" y="24"/>
      <point x="178" y="24" type="curve" smooth="yes"/>
      <point x="154" y="24"/>
      <point x="144" y="56"/>
      <point x="151" y="88" type="curve" smooth="yes"/>
      <point x="178" y="202"/>
      <point x="269" y="599"/>
      <point x="274" y="620" type="curve" smooth="yes"/>
      <point x="280" y="646"/>
      <point x="308" y="675"/>
      <point x="344" y="675" type="curve" smooth="yes"/>
      <point x="361" y="675"/>
      <point x="450" y="675"/>
      <point x="461" y="675" type="curve" smooth="yes"/>
      <point x="513" y="675"/>
      <point x="551" y="625"/>
      <point x="537" y="561" type="curve"/>
      <point x="550" y="561" type="line"/>
      <point x="582" y="700" type="line"/>
      <point x="511" y="700"/>
      <point x="386" y="700"/>
      <point x="369" y="700" type="curve" smooth="yes"/>
      <point x="352" y="700"/>
      <point x="271" y="697"/>
      <point x="259" y="697" type="curve" smooth="yes"/>
      <point x="246" y="697"/>
      <point x="164" y="700"/>
      <point x="145" y="700" type="curve"/>
      <point x="137" y="677" type="line"/>
      <point x="175" y="677"/>
      <point x="194" y="643"/>
      <point x="187" y="609" type="curve" smooth="yes"/>
      <point x="181" y="585"/>
      <point x="88" y="181"/>
      <point x="78" y="137" type="curve" smooth="yes"/>
      <point x="63" y="76"/>
      <point x="37" y="23"/>
      <point x="10" y="23" type="curve" smooth="yes"/>
      <point x="-20" y="23" type="line"/>
      <point x="-27" y="0" type="line"/>
      <point x="-1" y="0"/>
      <point x="51" y="0"/>
      <point x="88" y="0" type="curve" smooth="yes"/>
      <point x="126" y="0"/>
      <point x="180" y="-1"/>
    </contour>
    <contour>
      <point x="399" y="260" type="curve"/>
      <point x="412" y="260" type="line"/>
      <point x="424" y="327"/>
      <point x="440" y="395"/>
      <point x="459" y="462" type="curve"/>
      <point x="445" y="462" type="line"/>
      <point x="431" y="403"/>
      <point x="404" y="369"/>
      <point x="371" y="369" type="curve" smooth="yes"/>
      <point x="193" y="369" type="line"/>
      <point x="186" y="349" type="line"/>
      <point x="239" y="349"/>
      <point x="343" y="349"/>
      <point x="364" y="349" type="curve" smooth="yes"/>
      <point x="398" y="349"/>
      <point x="407" y="295"/>
    </contour>
  </outline>
</glyph>
<glyph name="F" format="2">
  <advance width="492"/>
  <unicode hex="0046"/>
  <outline>
    <contour>
      <point x="210" y="-1" type="curve"/>
      <point x="216" y="17" type="line"/>
      <point x="198" y="17"/>
      <point x="183" y="17"/>
      <point x="176" y="17" type="curve" smooth="yes"/>
      <point x="152" y="17"/>
      <point x="142" y="49"/>
      <point x="150" y="81" type="curve" smooth="yes"/>
      <point x="176" y="195"/>
      <point x="272" y="598"/>
      <point x="274" y="620" type="curve" smooth="yes"/>
      <point x="280" y="656"/>
      <point x="308" y="675"/>
      <point x="344" y="675" type="curve" smooth="yes"/>
      <point x="361" y="675"/>
      <point x="450" y="675"/>
      <point x="461" y="675" type="curve" smooth="yes"/>
      <point x="513" y="675"/>
      <point x="543" y="625"/>
      <point x="537" y="561" type="curve"/>
      <point x="550" y="561" type="line"/>
      <point x="574" y="700" type="line"/>
      <point x="503" y="700"/>
      <point x="386" y="700"/>
      <point x="369" y="700" type="curve" smooth="yes"/>
      <point x="352" y="700"/>
      <point x="271" y="697"/>
      <point x="259" y="697" type="curve" smooth="yes"/>
      <point x="246" y="697"/>
      <point x="164" y="700"/>
      <point x="145" y="700" type="curve"/>
      <point x="137" y="677" type="line"/>
      <point x="175" y="677"/>
      <point x="194" y="653"/>
      <point x="187" y="609" type="curve" smooth="yes"/>
      <point x="182" y="585"/>
      <point x="88" y="181"/>
      <point x="78" y="137" type="curve" smooth="yes"/>
      <point x="62" y="69"/>
      <point x="35" y="16"/>
      <point x="9" y="16" type="curve" smooth="yes"/>
      <point x="-21" y="16" type="line"/>
      <point x="-27" y="0" type="line"/>
      <point x="-1" y="0"/>
      <point x="51" y="0"/>
      <point x="88" y="0" type="curve" smooth="yes"/>
      <point x="125" y="0"/>
      <point x="178" y="-1"/>
    </contour>
    <contour>
      <point x="378" y="240" type="curve"/>
      <point x="391" y="240" type="line"/>
      <point x="403" y="307"/>
      <point x="428" y="415"/>
      <point x="446" y="482" type="curve"/>
      <point x="433" y="482" type="line"/>
      <point x="419" y="423"/>
      <point x="387" y="369"/>
      <point x="354" y="369" type="curve" smooth="yes"/>
      <point x="193" y="369" type="line"/>
      <point x="186" y="344" type="line"/>
      <point x="239" y="344"/>
      <point x="326" y="344"/>
      <point x="347" y="344" type="curve" smooth="yes"/>
      <point x="381" y="344"/>
      <point x="386" y="275"/>
    </contour>
  </outline>
</glyph>
<glyph name="G" format="2">
  <advance width="700"/>
  <unicode hex="0047"/>
  <outline>
    <contour>
      <point x="329" y="-20" type="curve" smooth="yes"/>
      <point x="395" y="-20"/>
      <point x="500" y="13"/>
      <point x="581" y="59" type="curve"/>
      <point x="584" y="70" type="line"/>
      <point x="576" y="76"/>
      <point x="572" y="86"/>
      <point x="573" y="93" type="curve" smooth="yes"/>
      <point x="576" y="106"/>
      <point x="597" y="199"/>
      <point x="602" y="222" type="curve" smooth="yes"/>
      <point x="609" y="252"/>
      <point x="631" y="274"/>
      <point x="654" y="274" type="curve" smooth="yes"/>
      <point x="674" y="274" type="line"/>
      <point x="682" y="299" type="line"/>
      <point x="414" y="299" type="line"/>
      <point x="406" y="273" type="line"/>
      <point x="426" y="273"/>
      <point x="486" y="273"/>
      <point x="491" y="273" type="curve" smooth="yes"/>
      <point x="512" y="273"/>
      <point x="519" y="234"/>
      <point x="506" y="180" type="curve" smooth="yes"/>
      <point x="483" y="80"/>
      <point x="411" y="10"/>
      <point x="344" y="10" type="curve" smooth="yes"/>
      <point x="211" y="10"/>
      <point x="133" y="150"/>
      <point x="178" y="347" type="curve" smooth="yes"/>
      <point x="223" y="540"/>
      <point x="357" y="676"/>
      <point x="503" y="676" type="curve" smooth="yes"/>
      <point x="595" y="676"/>
      <point x="670" y="606"/>
      <point x="671" y="507" type="curve"/>
      <point x="678" y="507" type="line"/>
      <point x="722" y="694" type="line"/>
      <point x="664" y="694"/>
      <point x="574" y="712"/>
      <point x="496" y="712" type="curve" smooth="yes"/>
      <point x="292" y="712"/>
      <point x="113" y="561"/>
      <point x="64" y="348" type="curve" smooth="yes"/>
      <point x="14" y="132"/>
      <point x="124" y="-20"/>
    </contour>
  </outline>
</glyph>
<glyph name="H" format="2">
  <advance width="757"/>
  <unicode hex="0048"/>
  <outline>
    <contour>
      <point x="390" y="0" type="line"/>
      <point x="674" y="0" type="line"/>
      <point x="681" y="18" type="line"/>
      <point x="676" y="18"/>
      <point x="671" y="18"/>
      <point x="665" y="18" type="curve" smooth="yes"/>
      <point x="623" y="18"/>
      <point x="590" y="63"/>
      <point x="602" y="112" type="curve" smooth="yes"/>
      <point x="607" y="137"/>
      <point x="710" y="581"/>
      <point x="715" y="605" type="curve" smooth="yes"/>
      <point x="724" y="644"/>
      <point x="760" y="682"/>
      <point x="784" y="682" type="curve" smooth="yes"/>
      <point x="808" y="682" type="line"/>
      <point x="815" y="700" type="line"/>
      <point x="555" y="700" type="line"/>
      <point x="549" y="682" type="line"/>
      <point x="558" y="682"/>
      <point x="566" y="682"/>
      <point x="577" y="682" type="curve" smooth="yes"/>
      <point x="611" y="682"/>
      <point x="641" y="652"/>
      <point x="635" y="624" type="curve" smooth="yes"/>
      <point x="630" y="601"/>
      <point x="524" y="146"/>
      <point x="520" y="125" type="curve" smooth="yes"/>
      <point x="506" y="68"/>
      <point x="463" y="18"/>
      <point x="431" y="18" type="curve" smooth="yes"/>
      <point x="397" y="18" type="line"/>
    </contour>
    <contour>
      <point x="-28" y="0" type="line"/>
      <point x="247" y="0" type="line"/>
      <point x="253" y="18" type="line"/>
      <point x="247" y="18"/>
      <point x="247" y="18"/>
      <point x="235" y="18" type="curve" smooth="yes"/>
      <point x="192" y="18"/>
      <point x="158" y="61"/>
      <point x="169" y="108" type="curve" smooth="yes"/>
      <point x="176" y="138"/>
      <point x="280" y="591"/>
      <point x="285" y="612" type="curve" smooth="yes"/>
      <point x="293" y="647"/>
      <point x="323" y="682"/>
      <point x="342" y="682" type="curve" smooth="yes"/>
      <point x="384" y="682" type="line"/>
      <point x="391" y="700" type="line"/>
      <point x="145" y="700" type="line"/>
      <point x="138" y="682" type="line"/>
      <point x="145" y="682"/>
      <point x="151" y="682"/>
      <point x="160" y="682" type="curve" smooth="yes"/>
      <point x="183" y="682"/>
      <point x="213" y="679"/>
      <point x="209" y="649" type="curve" smooth="yes"/>
      <point x="204" y="593"/>
      <point x="97" y="164"/>
      <point x="89" y="132" type="curve" smooth="yes"/>
      <point x="75" y="71"/>
      <point x="34" y="18"/>
      <point x="12" y="18" type="curve" smooth="yes"/>
      <point x="-21" y="18" type="line"/>
    </contour>
    <contour>
      <point x="215" y="355" type="line"/>
      <point x="609" y="355" type="line"/>
      <point x="617" y="380" type="line"/>
      <point x="223" y="380" type="line"/>
    </contour>
  </outline>
</glyph>
<glyph name="I" format="2">
  <advance width="301"/>
  <unicode hex="0049"/>
  <outline>
    <contour>
      <point x="-15" y="0" type="line"/>
      <point x="208" y="0" type="line"/>
      <point x="215" y="18" type="line"/>
      <point x="209" y="18"/>
      <point x="200" y="18"/>
      <point x="188" y="18" type="curve" smooth="yes"/>
      <point x="170" y="18"/>
      <point x="162" y="51"/>
      <point x="173" y="108" type="curve" smooth="yes"/>
      <point x="178" y="138"/>
      <point x="284" y="591"/>
      <point x="289" y="612" type="curve" smooth="yes"/>
      <point x="297" y="647"/>
      <point x="322" y="682"/>
      <point x="346" y="682" type="curve" smooth="yes"/>
      <point x="382" y="682" type="line"/>
      <point x="389" y="700" type="line"/>
      <point x="145" y="700" type="line"/>
      <point x="138" y="682" type="line"/>
      <point x="145" y="682"/>
      <point x="151" y="682"/>
      <point x="159" y="682" type="curve" smooth="yes"/>
      <point x="193" y="682"/>
      <point x="216" y="672"/>
      <point x="213" y="659" type="curve" smooth="yes"/>
      <point x="200" y="605"/>
      <point x="101" y="164"/>
      <point x="93" y="132" type="curve" smooth="yes"/>
      <point x="79" y="71"/>
      <point x="42" y="18"/>
      <point x="7" y="18" type="curve" smooth="yes"/>
      <point x="-9" y="18" type="line"/>
    </contour>
  </outline>
</glyph>
<glyph name="J" format="2">
  <advance width="294"/>
  <unicode hex="004A"/>
  <outline>
    <contour>
      <point x="-121" y="-373" type="curve" smooth="yes"/>
      <point x="-30" y="-373"/>
      <point x="51" y="-294"/>
      <point x="77" y="-183" type="curve" smooth="yes"/>
      <point x="98" y="-92"/>
      <point x="251" y="570"/>
      <point x="260" y="611" type="curve" smooth="yes"/>
      <point x="269" y="649"/>
      <point x="307" y="684"/>
      <point x="351" y="682" type="curve" smooth="yes"/>
      <point x="376" y="681" type="line"/>
      <point x="383" y="700" type="line"/>
      <point x="120" y="700" type="line"/>
      <point x="113" y="681" type="line"/>
      <point x="121" y="681"/>
      <point x="127" y="682"/>
      <point x="136" y="682" type="curve" smooth="yes"/>
      <point x="167" y="682"/>
      <point x="185" y="654"/>
      <point x="179" y="628" type="curve" smooth="yes"/>
      <point x="170" y="591"/>
      <point x="-16" y="-217"/>
      <point x="-25" y="-254" type="curve" smooth="yes"/>
      <point x="-37" y="-306"/>
      <point x="-72" y="-352"/>
      <point x="-110" y="-352" type="curve" smooth="yes"/>
      <point x="-152" y="-352"/>
      <point x="-177" y="-320"/>
      <point x="-169" y="-288" type="curve" smooth="yes"/>
      <point x="-163" y="-262"/>
      <point x="-150" y="-256"/>
      <point x="-146" y="-239" type="curve" smooth="yes"/>
      <point x="-143" y="-227"/>
      <point x="-156" y="-219"/>
      <point x="-176" y="-219" type="curve" smooth="yes"/>
      <point x="-200" y="-219"/>
      <point x="-223" y="-249"/>
      <point x="-233" y="-292" type="curve" smooth="yes"/>
      <point x="-244" y="-339"/>
      <point x="-198" y="-373"/>
    </contour>
  </outline>
</glyph>
<glyph name="K" format="2">
  <advance width="628"/>
  <unicode hex="004B"/>
  <outline>
    <contour>
      <point x="435" y="0" type="curve" smooth="yes"/>
      <point x="563" y="0" type="line"/>
      <point x="570" y="18" type="line"/>
      <point x="564" y="18" type="line" smooth="yes"/>
      <point x="540" y="18"/>
      <point x="513" y="45"/>
      <point x="487" y="87" type="curve" smooth="yes"/>
      <point x="296" y="398" type="line"/>
      <point x="383" y="477"/>
      <point x="475" y="568"/>
      <point x="495" y="589" type="curve" smooth="yes"/>
      <point x="526" y="621"/>
      <point x="594" y="669"/>
      <point x="615" y="669" type="curve" smooth="yes"/>
      <point x="655" y="669" type="line"/>
      <point x="663" y="696" type="line"/>
      <point x="438" y="696" type="line"/>
      <point x="430" y="670" type="line"/>
      <point x="454" y="670" type="line" smooth="yes"/>
      <point x="461" y="670"/>
      <point x="494" y="631"/>
      <point x="456" y="589" type="curve"/>
      <point x="210" y="348" type="line"/>
      <point x="235" y="458"/>
      <point x="262" y="575"/>
      <point x="266" y="594" type="curve" smooth="yes"/>
      <point x="277" y="640"/>
      <point x="302" y="682"/>
      <point x="324" y="682" type="curve" smooth="yes"/>
      <point x="353" y="682" type="line"/>
      <point x="359" y="700" type="line"/>
      <point x="145" y="700" type="line"/>
      <point x="139" y="682" type="line"/>
      <point x="162" y="682" type="line" smooth="yes"/>
      <point x="182" y="682"/>
      <point x="196" y="664"/>
      <point x="188" y="630" type="curve" smooth="yes"/>
      <point x="62" y="83" type="line" smooth="yes"/>
      <point x="55" y="51"/>
      <point x="34" y="18"/>
      <point x="16" y="18" type="curve" smooth="yes"/>
      <point x="3" y="18" type="line"/>
      <point x="-4" y="0" type="line"/>
      <point x="210" y="0" type="line"/>
      <point x="217" y="18" type="line"/>
      <point x="191" y="18" type="line" smooth="yes"/>
      <point x="158" y="18"/>
      <point x="141" y="52"/>
      <point x="149" y="87" type="curve" smooth="yes"/>
      <point x="201" y="318" type="line"/>
      <point x="217" y="333" type="line"/>
      <point x="392" y="36" type="line" smooth="yes"/>
      <point x="404" y="15"/>
      <point x="421" y="0"/>
    </contour>
  </outline>
</glyph>
<glyph name="L" format="2">
  <advance width="613"/>
  <unicode hex="004C"/>
  <outline>
    <contour>
      <point x="-7" y="25" type="curve"/>
      <point x="-15" y="0" type="line"/>
      <point x="485" y="0" type="line"/>
      <point x="580" y="162" type="line"/>
      <point x="565" y="169" type="line"/>
      <point x="521" y="91"/>
      <point x="454" y="25"/>
      <point x="403" y="25" type="curve" smooth="yes"/>
      <point x="344" y="25"/>
      <point x="254" y="25"/>
      <point x="235" y="25" type="curve" smooth="yes"/>
      <point x="201" y="25"/>
      <point x="181" y="74"/>
      <point x="194" y="130" type="curve" smooth="yes"/>
      <point x="205" y="179"/>
      <point x="293" y="558"/>
      <point x="304" y="608" type="curve" smooth="yes"/>
      <point x="313" y="645"/>
      <point x="364" y="682"/>
      <point x="423" y="682" type="curve" smooth="yes"/>
      <point x="440" y="682" type="line"/>
      <point x="446" y="700" type="line"/>
      <point x="145" y="700" type="line"/>
      <point x="138" y="682" type="line"/>
      <point x="160" y="682" type="line" smooth="yes"/>
      <point x="202" y="682"/>
      <point x="226" y="636"/>
      <point x="214" y="584" type="curve" smooth="yes"/>
      <point x="202" y="533"/>
      <point x="117" y="166"/>
      <point x="108" y="125" type="curve" smooth="yes"/>
      <point x="96" y="72"/>
      <point x="68" y="25"/>
      <point x="46" y="25" type="curve" smooth="yes"/>
      <point x="31" y="25"/>
      <point x="5" y="25"/>
    </contour>
  </outline>
</glyph>
<glyph name="M" format="2">
  <advance width="830"/>
  <unicode hex="004D"/>
  <outline>
    <contour>
      <point x="259" y="538" type="curve" smooth="yes"/>
      <point x="321" y="0" type="line"/>
      <point x="335" y="0" type="line"/>
      <point x="729" y="640" type="line"/>
      <point x="733" y="700" type="line"/>
      <point x="395" y="150" type="line"/>
      <point x="332" y="700" type="line"/>
      <point x="145" y="700" type="line"/>
      <point x="135" y="669" type="line"/>
      <point x="153" y="669"/>
      <point x="178" y="669"/>
      <point x="198" y="669" type="curve" smooth="yes"/>
      <point x="225" y="669"/>
      <point x="250" y="609"/>
    </contour>
    <contour>
      <point x="-28" y="0" type="line"/>
      <point x="203" y="0" type="line"/>
      <point x="209" y="17" type="line"/>
      <point x="200" y="17"/>
      <point x="193" y="17"/>
      <point x="184" y="17" type="curve" smooth="yes"/>
      <point x="140" y="17"/>
      <point x="117" y="54"/>
      <point x="124" y="92" type="curve" smooth="yes"/>
      <point x="254" y="666" type="line"/>
      <point x="232" y="666" type="line"/>
      <point x="193" y="494"/>
      <point x="124" y="187"/>
      <point x="114" y="141" type="curve" smooth="yes"/>
      <point x="98" y="74"/>
      <point x="52" y="17"/>
      <point x="16" y="17" type="curve" smooth="yes"/>
      <point x="-21" y="17" type="line"/>
    </contour>
    <contour>
      <point x="484" y="0" type="line"/>
      <point x="747" y="0" type="line"/>
      <point x="753" y="18" type="line"/>
      <point x="744" y="18"/>
      <point x="737" y="18"/>
      <point x="726" y="18" type="curve" smooth="yes"/>
      <point x="688" y="18"/>
      <point x="668" y="53"/>
      <point x="676" y="88" type="curve" smooth="yes"/>
      <point x="685" y="126"/>
      <point x="789" y="580"/>
      <point x="797" y="611" type="curve" smooth="yes"/>
      <point x="803" y="640"/>
      <point x="823" y="670"/>
      <point x="845" y="670" type="curve" smooth="yes"/>
      <point x="880" y="670" type="line"/>
      <point x="889" y="700" type="line"/>
      <point x="732" y="700" type="line"/>
      <point x="686" y="498"/>
      <point x="597" y="114"/>
      <point x="592" y="91" type="curve" smooth="yes"/>
      <point x="583" y="54"/>
      <point x="570" y="18"/>
      <point x="559" y="18" type="curve" smooth="yes"/>
      <point x="492" y="18" type="line"/>
    </contour>
  </outline>
</glyph>
<glyph name="N" format="2">
  <advance width="741"/>
  <unicode hex="004E"/>
  <outline>
    <contour>
      <point x="227" y="634" type="curve" smooth="yes"/>
      <point x="570" y="-6" type="line"/>
      <point x="598" y="-6" type="line"/>
      <point x="643" y="189"/>
      <point x="723" y="535"/>
      <point x="734" y="579" type="curve" smooth="yes"/>
      <point x="746" y="633"/>
      <point x="786" y="672"/>
      <point x="830" y="672" type="curve" smooth="yes"/>
      <point x="863" y="672" type="line"/>
      <point x="869" y="700" type="line"/>
      <point x="599" y="700" type="line"/>
      <point x="593" y="672" type="line"/>
      <point x="602" y="672"/>
      <point x="637" y="672"/>
      <point x="649" y="672" type="curve" smooth="yes"/>
      <point x="685" y="672"/>
      <point x="704" y="640"/>
      <point x="693" y="594" type="curve" smooth="yes"/>
      <point x="591" y="164" type="line"/>
      <point x="303" y="700" type="line"/>
      <point x="144" y="697" type="line"/>
      <point x="137" y="669" type="line"/>
      <point x="148" y="669"/>
      <point x="158" y="669"/>
      <point x="170" y="669" type="curve" smooth="yes"/>
      <point x="192" y="669"/>
      <point x="215" y="654"/>
    </contour>
    <contour>
      <point x="-2" y="0" type="line"/>
      <point x="256" y="0" type="line"/>
      <point x="262" y="27" type="line"/>
      <point x="211" y="27"/>
      <point x="207" y="27"/>
      <point x="198" y="27" type="curve" smooth="yes"/>
      <point x="154" y="27"/>
      <point x="130" y="54"/>
      <point x="138" y="92" type="curve" smooth="yes"/>
      <point x="268" y="656" type="line"/>
      <point x="246" y="656" type="line"/>
      <point x="207" y="484"/>
      <point x="138" y="187"/>
      <point x="128" y="141" type="curve" smooth="yes"/>
      <point x="112" y="74"/>
      <point x="66" y="27"/>
      <point x="30" y="27" type="curve" smooth="yes"/>
      <point x="4" y="27" type="line"/>
    </contour>
  </outline>
</glyph>
<glyph name="O" format="2">
  <advance width="747"/>
  <unicode hex="004F"/>
  <anchor x="493" y="635" name="top"/>
  <anchor x="308" y="0" name="bottom"/>
  <anchor x="415" y="350" name="center"/>
  <anchor x="875" y="700" name="topright"/>
  <anchor x="609" y="10" name="ogonek"/>
  <anchor x="168" y="700" name="topleft"/>
  <outline>
    <contour>
      <point x="306" y="-11" type="curve" smooth="yes"/>
      <point x="502" y="-11"/>
      <point x="677" y="145"/>
      <point x="728" y="365" type="curve" smooth="yes"/>
      <point x="775" y="572"/>
      <point x="672" y="719"/>
      <point x="478" y="719" type="curve" smooth="yes"/>
      <point x="287" y="719"/>
      <point x="117" y="572"/>
      <point x="70" y="365" type="curve" smooth="yes"/>
      <point x="19" y="145"/>
      <point x="116" y="-11"/>
    </contour>
    <contour>
      <point x="309" y="9" type="curve" smooth="yes"/>
      <point x="177" y="9"/>
      <point x="141" y="179"/>
      <point x="193" y="405" type="curve" smooth="yes"/>
      <point x="231" y="571"/>
      <point x="353" y="699"/>
      <point x="474" y="699" type="curve" smooth="yes"/>
      <point x="606" y="699"/>
      <point x="655" y="539"/>
      <point x="606" y="326" type="curve" smooth="yes"/>
      <point x="564" y="146"/>
      <point x="430" y="9"/>
    </contour>
  </outline>
</glyph>
<glyph name="P" format="2">
  <advance width="563"/>
  <unicode hex="0050"/>
  <outline>
    <contour>
      <point x="-3" y="0" type="line"/>
      <point x="249" y="0" type="line"/>
      <point x="255" y="18" type="line"/>
      <point x="250" y="18"/>
      <point x="230" y="18"/>
      <point x="221" y="18" type="curve" smooth="yes"/>
      <point x="187" y="18"/>
      <point x="166" y="57"/>
      <point x="176" y="98" type="curve" smooth="yes"/>
      <point x="187" y="148"/>
      <point x="297" y="626"/>
      <point x="301" y="642" type="curve" smooth="yes"/>
      <point x="305" y="657"/>
      <point x="328" y="677"/>
      <point x="352" y="677" type="curve" smooth="yes"/>
      <point x="440" y="677"/>
      <point x="487" y="595"/>
      <point x="462" y="486" type="curve" smooth="yes"/>
      <point x="437" y="382"/>
      <point x="368" y="309"/>
      <point x="293" y="309" type="curve"/>
      <point x="286" y="279" type="line"/>
      <point x="421" y="279"/>
      <point x="536" y="369"/>
      <point x="565" y="497" type="curve" smooth="yes"/>
      <point x="593" y="616"/>
      <point x="523" y="702"/>
      <point x="397" y="702" type="curve" smooth="yes"/>
      <point x="351" y="702"/>
      <point x="279" y="699"/>
      <point x="255" y="699" type="curve" smooth="yes"/>
      <point x="241" y="699"/>
      <point x="196" y="702"/>
      <point x="145" y="702" type="curve"/>
      <point x="138" y="682" type="line"/>
      <point x="185" y="682"/>
      <point x="219" y="653"/>
      <point x="212" y="625" type="curve" smooth="yes"/>
      <point x="202" y="579"/>
      <point x="87" y="81"/>
      <point x="82" y="63" type="curve" smooth="yes"/>
      <point x="78" y="43"/>
      <point x="55" y="18"/>
      <point x="35" y="18" type="curve" smooth="yes"/>
      <point x="4" y="18" type="line"/>
    </contour>
  </outline>
</glyph>
<glyph name="Q" format="2">
  <advance width="727"/>
  <unicode hex="0051"/>
  <outline>
    <contour>
      <point x="303" y="-18" type="curve" smooth="yes"/>
      <point x="500" y="-18"/>
      <point x="674" y="138"/>
      <point x="725" y="358" type="curve" smooth="yes"/>
      <point x="773" y="565"/>
      <point x="669" y="712"/>
      <point x="475" y="712" type="curve" smooth="yes"/>
      <point x="284" y="712"/>
      <point x="115" y="565"/>
      <point x="67" y="358" type="curve" smooth="yes"/>
      <point x="16" y="138"/>
      <point x="114" y="-18"/>
    </contour>
    <contour>
      <point x="782" y="-175" type="curve" smooth="yes"/>
      <point x="810" y="-175"/>
      <point x="848" y="-171"/>
      <point x="875" y="-165" type="curve"/>
      <point x="880" y="-150" type="line"/>
      <point x="662" y="-163"/>
      <point x="476" y="-84"/>
      <point x="430" y="27" type="curve"/>
      <point x="380" y="8"/>
      <point x="335" y="-5"/>
      <point x="322" y="-5" type="curve" smooth="yes"/>
      <point x="296" y="-5"/>
      <point x="253" y="13"/>
      <point x="218" y="38" type="curve"/>
      <point x="217" y="8" type="line"/>
      <point x="334" y="-99"/>
      <point x="569" y="-175"/>
    </contour>
    <contour>
      <point x="316" y="2" type="curve" smooth="yes"/>
      <point x="185" y="2"/>
      <point x="138" y="172"/>
      <point x="190" y="398" type="curve" smooth="yes"/>
      <point x="229" y="564"/>
      <point x="351" y="692"/>
      <point x="471" y="692" type="curve" smooth="yes"/>
      <point x="603" y="692"/>
      <point x="652" y="532"/>
      <point x="603" y="319" type="curve" smooth="yes"/>
      <point x="561" y="139"/>
      <point x="437" y="2"/>
    </contour>
  </outline>
</glyph>
<glyph name="R" format="2">
  <advance width="621"/>
  <unicode hex="0052"/>
  <outline>
    <contour>
      <point x="471" y="-3" type="curve" smooth="yes"/>
      <point x="526" y="-3"/>
      <point x="582" y="-2"/>
      <point x="608" y="0" type="curve"/>
      <point x="615" y="19" type="line"/>
      <point x="614" y="18"/>
      <point x="599" y="18"/>
      <point x="581" y="18" type="curve" smooth="yes"/>
      <point x="558" y="18"/>
      <point x="510" y="41"/>
      <point x="499" y="66" type="curve" smooth="yes"/>
      <point x="425" y="226"/>
      <point x="363" y="340"/>
      <point x="353" y="357" type="curve"/>
      <point x="357" y="328" type="line"/>
      <point x="478" y="352"/>
      <point x="573" y="439"/>
      <point x="595" y="537" type="curve" smooth="yes"/>
      <point x="616" y="627"/>
      <point x="549" y="700"/>
      <point x="430" y="700" type="curve" smooth="yes"/>
      <point x="395" y="700"/>
      <point x="299" y="698"/>
      <point x="274" y="698" type="curve" smooth="yes"/>
      <point x="230" y="698"/>
      <point x="188" y="700"/>
      <point x="145" y="700" type="curve"/>
      <point x="138" y="682" type="line"/>
      <point x="144" y="682"/>
      <point x="144" y="682"/>
      <point x="156" y="682" type="curve" smooth="yes"/>
      <point x="196" y="682"/>
      <point x="223" y="639"/>
      <point x="213" y="593" type="curve" smooth="yes"/>
      <point x="200" y="539"/>
      <point x="100" y="103"/>
      <point x="93" y="73" type="curve" smooth="yes"/>
      <point x="87" y="47"/>
      <point x="59" y="18"/>
      <point x="36" y="18" type="curve" smooth="yes"/>
      <point x="8" y="18" type="line"/>
      <point x="2" y="0" type="line"/>
      <point x="240" y="0" type="line"/>
      <point x="246" y="18" type="line"/>
      <point x="235" y="18"/>
      <point x="218" y="18"/>
      <point x="193" y="18" type="curve" smooth="yes"/>
      <point x="181" y="18"/>
      <point x="172" y="46"/>
      <point x="178" y="72" type="curve" smooth="yes"/>
      <point x="188" y="116"/>
      <point x="297" y="588"/>
      <point x="305" y="625" type="curve" smooth="yes"/>
      <point x="311" y="648"/>
      <point x="335" y="675"/>
      <point x="356" y="675" type="curve" smooth="yes"/>
      <point x="377" y="675"/>
      <point x="390" y="675"/>
      <point x="410" y="675" type="curve" smooth="yes"/>
      <point x="474" y="675"/>
      <point x="505" y="601"/>
      <point x="485" y="517" type="curve" smooth="yes"/>
      <point x="464" y="426"/>
      <point x="386" y="352"/>
      <point x="296" y="352" type="curve" smooth="yes"/>
      <point x="199" y="352" type="line"/>
      <point x="191" y="327" type="line"/>
      <point x="280" y="327" type="line"/>
      <point x="320" y="219"/>
      <point x="370" y="114"/>
      <point x="397" y="60" type="curve" smooth="yes"/>
      <point x="414" y="23"/>
      <point x="442" y="-3"/>
    </contour>
  </outline>
</glyph>
<glyph name="S" format="2">
  <advance width="493"/>
  <unicode hex="0053"/>
  <outline>
    <contour>
      <point x="179" y="-16" type="curve" smooth="yes"/>
      <point x="305" y="-16"/>
      <point x="413" y="71"/>
      <point x="442" y="194" type="curve" smooth="yes"/>
      <point x="488" y="395"/>
      <point x="203" y="384"/>
      <point x="245" y="563" type="curve" smooth="yes"/>
      <point x="261" y="633"/>
      <point x="326" y="692"/>
      <point x="382" y="692" type="curve" smooth="yes"/>
      <point x="448" y="692"/>
      <point x="489" y="618"/>
      <point x="483" y="527" type="curve"/>
      <point x="486" y="527" type="line"/>
      <point x="527" y="704" type="line"/>
      <point x="516" y="704" type="line"/>
      <point x="484" y="673" type="line"/>
      <point x="466" y="696"/>
      <point x="424" y="712"/>
      <point x="381" y="712" type="curve" smooth="yes"/>
      <point x="270" y="712"/>
      <point x="173" y="634"/>
      <point x="147" y="524" type="curve" smooth="yes"/>
      <point x="102" y="329"/>
      <point x="385" y="334"/>
      <point x="342" y="148" type="curve" smooth="yes"/>
      <point x="324" y="70"/>
      <point x="249" y="4"/>
      <point x="179" y="4" type="curve" smooth="yes"/>
      <point x="93" y="4"/>
      <point x="48" y="95"/>
      <point x="73" y="209" type="curve"/>
      <point x="55" y="209" type="line"/>
      <point x="30" y="100" type="line"/>
      <point x="49" y="32"/>
      <point x="111" y="-16"/>
    </contour>
  </outline>
</glyph>
<glyph name="T" format="2">
  <advance width="573"/>
  <unicode hex="0054"/>
  <outline>
    <contour>
      <point x="116" y="0" type="line"/>
      <point x="372" y="0" type="line"/>
      <point x="378" y="18" type="line"/>
      <point x="369" y="18"/>
      <point x="362" y="18"/>
      <point x="350" y="18" type="curve" smooth="yes"/>
      <point x="338" y="18"/>
      <point x="286" y="22"/>
      <point x="294" y="66" type="curve"/>
      <point x="440" y="695" type="line"/>
      <point x="355" y="695" type="line"/>
      <point x="309" y="497"/>
      <point x="218" y="104"/>
      <point x="216" y="95" type="curve" smooth="yes"/>
      <point x="210" y="68"/>
      <point x="177" y="14"/>
      <point x="145" y="14" type="curve" smooth="yes"/>
      <point x="122" y="14" type="line"/>
    </contour>
    <contour>
      <point x="641" y="546" type="line"/>
      <point x="648" y="552" type="line"/>
      <point x="672" y="713" type="line"/>
      <point x="631" y="700" type="line"/>
      <point x="149" y="700" type="line"/>
      <point x="122" y="711" type="line"/>
      <point x="72" y="562" type="line"/>
      <point x="75" y="556" type="line"/>
      <point x="147" y="660" type="line"/>
      <point x="614" y="660" type="line"/>
    </contour>
  </outline>
</glyph>
<glyph name="U" format="2">
  <advance width="700"/>
  <unicode hex="0055"/>
  <anchor x="416" y="635" name="top"/>
  <anchor x="284" y="0" name="bottom"/>
  <anchor x="567" y="10" name="ogonek"/>
  <anchor x="828" y="700" name="topright"/>
  <outline>
    <contour>
      <point x="318" y="-11" type="curve" smooth="yes"/>
      <point x="495" y="-11"/>
      <point x="608" y="95"/>
      <point x="643" y="246" type="curve" smooth="yes"/>
      <point x="681" y="410"/>
      <point x="706" y="521"/>
      <point x="728" y="611" type="curve" smooth="yes"/>
      <point x="735" y="644"/>
      <point x="757" y="681"/>
      <point x="787" y="681" type="curve" smooth="yes"/>
      <point x="798" y="681" type="line"/>
      <point x="805" y="699" type="line"/>
      <point x="567" y="699" type="line"/>
      <point x="560" y="681" type="line"/>
      <point x="592" y="681"/>
      <point x="644" y="681"/>
      <point x="655" y="681" type="curve" smooth="yes"/>
      <point x="687" y="681"/>
      <point x="699" y="631"/>
      <point x="693" y="603" type="curve" smooth="yes"/>
      <point x="718" y="708"/>
      <point x="605" y="214"/>
      <point x="610" y="241" type="curve"/>
      <point x="580" y="112"/>
      <point x="460" y="21"/>
      <point x="319" y="21" type="curve" smooth="yes"/>
      <point x="220" y="21"/>
      <point x="145" y="92"/>
      <point x="168" y="193" type="curve" smooth="yes"/>
      <point x="150" y="112"/>
      <point x="268" y="627"/>
      <point x="268" y="626" type="curve" smooth="yes"/>
      <point x="277" y="666"/>
      <point x="316" y="681"/>
      <point x="333" y="681" type="curve" smooth="yes"/>
      <point x="347" y="681" type="line"/>
      <point x="354" y="699" type="line"/>
      <point x="150" y="699" type="line"/>
      <point x="143" y="681" type="line"/>
      <point x="149" y="681"/>
      <point x="154" y="681"/>
      <point x="162" y="681" type="curve" smooth="yes"/>
      <point x="175" y="681"/>
      <point x="186" y="639"/>
      <point x="170" y="570" type="curve" smooth="yes"/>
      <point x="121" y="360"/>
      <point x="33" y="-24"/>
      <point x="83" y="192" type="curve" smooth="yes"/>
      <point x="55" y="73"/>
      <point x="170" y="-11"/>
    </contour>
  </outline>
</glyph>
<glyph name="V" format="2">
  <advance width="570"/>
  <unicode hex="0056"/>
  <outline>
    <contour>
      <point x="148" y="627" type="curve"/>
      <point x="226" y="-12" type="line"/>
      <point x="258" y="0" type="line"/>
      <point x="600" y="641" type="line" smooth="yes"/>
      <point x="609" y="657"/>
      <point x="632" y="679"/>
      <point x="654" y="679" type="curve" smooth="yes"/>
      <point x="689" y="679" type="line"/>
      <point x="697" y="700" type="line"/>
      <point x="501" y="700" type="line"/>
      <point x="494" y="679" type="line"/>
      <point x="540" y="679" type="line" smooth="yes"/>
      <point x="560" y="679"/>
      <point x="567" y="658"/>
      <point x="558" y="641" type="curve" smooth="yes"/>
      <point x="296" y="150" type="line"/>
      <point x="233" y="621" type="line" smooth="yes"/>
      <point x="229" y="651"/>
      <point x="251" y="682"/>
      <point x="276" y="682" type="curve" smooth="yes"/>
      <point x="320" y="682" type="line"/>
      <point x="327" y="700" type="line"/>
      <point x="97" y="700" type="line"/>
      <point x="91" y="682" type="line"/>
      <point x="120" y="682" type="line" smooth="yes"/>
      <point x="132" y="682"/>
      <point x="143" y="653"/>
    </contour>
  </outline>
</glyph>
<glyph name="W" format="2">
  <advance width="844"/>
  <unicode hex="0057"/>
  <outline>
    <contour>
      <point x="479" y="627" type="curve"/>
      <point x="507" y="-12" type="line"/>
      <point x="538" y="0" type="line"/>
      <point x="864" y="641" type="line" smooth="yes"/>
      <point x="872" y="657"/>
      <point x="895" y="679"/>
      <point x="917" y="679" type="curve" smooth="yes"/>
      <point x="953" y="679" type="line"/>
      <point x="960" y="700" type="line"/>
      <point x="801" y="700" type="line"/>
      <point x="794" y="679" type="line"/>
      <point x="803" y="679" type="line" smooth="yes"/>
      <point x="824" y="679"/>
      <point x="834" y="665"/>
      <point x="821" y="641" type="curve" smooth="yes"/>
      <point x="590" y="167" type="line"/>
      <point x="569" y="616" type="line" smooth="yes"/>
      <point x="568" y="646"/>
      <point x="582" y="682"/>
      <point x="608" y="682" type="curve" smooth="yes"/>
      <point x="635" y="682" type="line"/>
      <point x="641" y="700" type="line"/>
      <point x="429" y="700" type="line"/>
      <point x="422" y="682" type="line"/>
      <point x="451" y="682" type="line" smooth="yes"/>
      <point x="463" y="682"/>
      <point x="475" y="653"/>
    </contour>
    <contour>
      <point x="148" y="627" type="curve"/>
      <point x="175" y="-12" type="line"/>
      <point x="207" y="0" type="line"/>
      <point x="566" y="682" type="line"/>
      <point x="523" y="682" type="line"/>
      <point x="259" y="164" type="line"/>
      <point x="237" y="621" type="line" smooth="yes"/>
      <point x="236" y="651"/>
      <point x="251" y="682"/>
      <point x="276" y="682" type="curve" smooth="yes"/>
      <point x="303" y="682" type="line"/>
      <point x="310" y="700" type="line"/>
      <point x="97" y="700" type="line"/>
      <point x="91" y="682" type="line"/>
      <point x="120" y="682" type="line" smooth="yes"/>
      <point x="132" y="682"/>
      <point x="143" y="653"/>
    </contour>
  </outline>
</glyph>
<glyph name="X" format="2">
  <advance width="617"/>
  <unicode hex="0058"/>
  <outline>
    <contour>
      <point x="294" y="0" type="line"/>
      <point x="549" y="0" type="line"/>
      <point x="555" y="18" type="line"/>
      <point x="530" y="18" type="line" smooth="yes"/>
      <point x="522" y="18"/>
      <point x="491" y="43"/>
      <point x="479" y="79" type="curve" smooth="yes"/>
      <point x="428" y="237"/>
      <point x="348" y="472"/>
      <point x="280" y="642" type="curve"/>
      <point x="272" y="666"/>
      <point x="284" y="682"/>
      <point x="309" y="682" type="curve" smooth="yes"/>
      <point x="361" y="682" type="line"/>
      <point x="368" y="700" type="line"/>
      <point x="130" y="700" type="line"/>
      <point x="123" y="682" type="line"/>
      <point x="133" y="682" type="line" smooth="yes"/>
      <point x="144" y="682"/>
      <point x="174" y="667"/>
      <point x="181" y="649" type="curve" smooth="yes"/>
      <point x="118" y="826"/>
      <point x="369" y="109"/>
      <point x="367" y="116" type="curve" smooth="yes"/>
      <point x="386" y="58"/>
      <point x="362" y="18"/>
      <point x="338" y="18" type="curve" smooth="yes"/>
      <point x="300" y="18" type="line"/>
    </contour>
    <contour>
      <point x="-43" y="18" type="curve"/>
      <point x="-50" y="0" type="line"/>
      <point x="179" y="0" type="line"/>
      <point x="185" y="18" type="line"/>
      <point x="178" y="18"/>
      <point x="179" y="18"/>
      <point x="162" y="18" type="curve" smooth="yes"/>
      <point x="106" y="18"/>
      <point x="94" y="53"/>
      <point x="133" y="104" type="curve" smooth="yes"/>
      <point x="141" y="114"/>
      <point x="231" y="214"/>
      <point x="351" y="346" type="curve"/>
      <point x="345" y="369" type="line"/>
      <point x="275" y="291"/>
      <point x="161" y="167"/>
      <point x="70" y="70" type="curve" smooth="yes"/>
      <point x="40" y="39"/>
      <point x="-7" y="18"/>
    </contour>
    <contour>
      <point x="336" y="359" type="curve"/>
      <point x="342" y="336" type="line"/>
      <point x="625" y="651" type="line" smooth="yes"/>
      <point x="643" y="673"/>
      <point x="662" y="682"/>
      <point x="672" y="682" type="curve" smooth="yes"/>
      <point x="707" y="682" type="line"/>
      <point x="714" y="700" type="line"/>
      <point x="483" y="700" type="line"/>
      <point x="477" y="682" type="line"/>
      <point x="489" y="682"/>
      <point x="498" y="682"/>
      <point x="541" y="682" type="curve" smooth="yes"/>
      <point x="568" y="682"/>
      <point x="573" y="638"/>
      <point x="524" y="579" type="curve" smooth="yes"/>
      <point x="464" y="505"/>
      <point x="524" y="576"/>
    </contour>
  </outline>
</glyph>
<glyph name="Y" format="2">
  <advance width="534"/>
  <unicode hex="0059"/>
  <outline>
    <contour>
      <point x="163" y="649" type="curve"/>
      <point x="236" y="292" type="line"/>
      <point x="312" y="319" type="line"/>
      <point x="246" y="632" type="line" smooth="yes"/>
      <point x="239" y="670"/>
      <point x="269" y="682"/>
      <point x="289" y="682" type="curve" smooth="yes"/>
      <point x="364" y="682" type="line"/>
      <point x="371" y="700" type="line"/>
      <point x="107" y="700" type="line"/>
      <point x="101" y="682" type="line"/>
      <point x="136" y="682" type="line" smooth="yes"/>
      <point x="143" y="682"/>
      <point x="157" y="667"/>
    </contour>
    <contour>
      <point x="85" y="0" type="line"/>
      <point x="341" y="0" type="line"/>
      <point x="347" y="18" type="line"/>
      <point x="338" y="18"/>
      <point x="331" y="18"/>
      <point x="319" y="18" type="curve"/>
      <point x="331" y="18"/>
      <point x="252" y="14"/>
      <point x="263" y="66" type="curve" smooth="yes"/>
      <point x="321" y="314" type="line"/>
      <point x="236" y="314" type="line"/>
      <point x="185" y="95" type="line" smooth="yes"/>
      <point x="181" y="77"/>
      <point x="144" y="14"/>
      <point x="114" y="14" type="curve" smooth="yes"/>
      <point x="91" y="14" type="line"/>
    </contour>
    <contour>
      <point x="513" y="630" type="curve" smooth="yes"/>
      <point x="293" y="314" type="line"/>
      <point x="321" y="314" type="line"/>
      <point x="558" y="651" type="line"/>
      <point x="576" y="669"/>
      <point x="591" y="682"/>
      <point x="599" y="682" type="curve" smooth="yes"/>
      <point x="634" y="682" type="line"/>
      <point x="640" y="700" type="line"/>
      <point x="461" y="700" type="line"/>
      <point x="454" y="682" type="line"/>
      <point x="511" y="682" type="line" smooth="yes"/>
      <point x="533" y="682"/>
      <point x="533" y="661"/>
    </contour>
  </outline>
</glyph>
<glyph name="Z" format="2">
  <advance width="567"/>
  <unicode hex="005A"/>
  <outline>
    <contour>
      <point x="-29" y="0" type="curve"/>
      <point x="184" y="0" type="line"/>
      <point x="192" y="25" type="line"/>
      <point x="133" y="25" type="line" smooth="yes"/>
      <point x="113" y="25"/>
      <point x="112" y="52"/>
      <point x="131" y="77" type="curve" smooth="yes"/>
      <point x="597" y="649" type="line"/>
      <point x="609" y="700" type="line"/>
      <point x="209" y="700" type="line"/>
      <point x="109" y="482" type="line"/>
      <point x="127" y="476" type="line"/>
      <point x="193" y="587"/>
      <point x="258" y="675"/>
      <point x="282" y="675" type="curve" smooth="yes"/>
      <point x="478" y="675" type="line" smooth="yes"/>
      <point x="498" y="675"/>
      <point x="500" y="650"/>
      <point x="481" y="628" type="curve" smooth="yes"/>
      <point x="384" y="516"/>
      <point x="174" y="256"/>
    </contour>
    <contour>
      <point x="3" y="0" type="line"/>
      <point x="435" y="0" type="line"/>
      <point x="524" y="212" type="line"/>
      <point x="500" y="219" type="line"/>
      <point x="455" y="141"/>
      <point x="377" y="25"/>
      <point x="326" y="25" type="curve" smooth="yes"/>
      <point x="253" y="25" type="line"/>
      <point x="64" y="25" type="line"/>
      <point x="11" y="25" type="line"/>
    </contour>
  </outline>
</glyph>
<glyph name="a" format="2">
  <advance width="429"/>
  <unicode hex="0061"/>
  <anchor x="281" y="435" name="top"/>
  <anchor x="149" y="0" name="bottom"/>
  <anchor x="323" y="10" name="ogonek"/>
  <outline>
    <contour>
      <point x="63" y="-8" type="curve" smooth="yes"/>
      <point x="103" y="-8"/>
      <point x="188" y="53"/>
      <point x="269" y="140" type="curve"/>
      <point x="252" y="148" type="line"/>
      <point x="193" y="88"/>
      <point x="132" y="46"/>
      <point x="105" y="46" type="curve" smooth="yes"/>
      <point x="77" y="46"/>
      <point x="83" y="128"/>
      <point x="119" y="229" type="curve" smooth="yes"/>
      <point x="171" y="370"/>
      <point x="251" y="480"/>
      <point x="312" y="480" type="curve" smooth="yes"/>
      <point x="323" y="480"/>
      <point x="344" y="456"/>
      <point x="362" y="437" type="curve"/>
      <point x="400" y="476" type="line"/>
      <point x="384" y="495"/>
      <point x="359" y="508"/>
      <point x="340" y="508" type="curve" smooth="yes"/>
      <point x="226" y="508"/>
      <point x="98" y="379"/>
      <point x="31" y="197" type="curve" smooth="yes"/>
      <point x="-12" y="77"/>
      <point x="1" y="-8"/>
    </contour>
    <contour>
      <point x="249" y="-8" type="curve" smooth="yes"/>
      <point x="310" y="-8"/>
      <point x="388" y="82"/>
      <point x="437" y="210" type="curve"/>
      <point x="407" y="200" type="line"/>
      <point x="372" y="109"/>
      <point x="331" y="44"/>
      <point x="308" y="44" type="curve" smooth="yes"/>
      <point x="288" y="44"/>
      <point x="293" y="105"/>
      <point x="320" y="177" type="curve" smooth="yes"/>
      <point x="358" y="284"/>
      <point x="410" y="421"/>
      <point x="446" y="508" type="curve"/>
      <point x="368" y="500" type="line"/>
      <point x="274" y="250"/>
      <point x="197" y="52"/>
      <point x="228" y="135" type="curve"/>
      <point x="197" y="51"/>
      <point x="206" y="-8"/>
    </contour>
  </outline>
</glyph>
<glyph name="b" format="2">
  <advance width="438"/>
  <unicode hex="0062"/>
  <outline>
    <contour>
      <point x="104" y="-8" type="curve" smooth="yes"/>
      <point x="215" y="-8"/>
      <point x="339" y="116"/>
      <point x="403" y="291" type="curve" smooth="yes"/>
      <point x="449" y="418"/>
      <point x="429" y="508"/>
      <point x="355" y="508" type="curve" smooth="yes"/>
      <point x="289" y="508"/>
      <point x="178" y="383"/>
      <point x="87" y="207" type="curve"/>
      <point x="116" y="199" type="line"/>
      <point x="182" y="342"/>
      <point x="258" y="444"/>
      <point x="298" y="444" type="curve" smooth="yes"/>
      <point x="351" y="444"/>
      <point x="365" y="351"/>
      <point x="324" y="234" type="curve" smooth="yes"/>
      <point x="286" y="127"/>
      <point x="224" y="52"/>
      <point x="175" y="52" type="curve" smooth="yes"/>
      <point x="123" y="52"/>
      <point x="79" y="86"/>
      <point x="76" y="133" type="curve"/>
      <point x="9" y="41" type="line"/>
      <point x="44" y="12"/>
      <point x="83" y="-8"/>
    </contour>
    <contour>
      <point x="78" y="18" type="line"/>
      <point x="98" y="79"/>
      <point x="243" y="572"/>
      <point x="286" y="700" type="curve"/>
      <point x="211" y="700" type="line"/>
      <point x="9" y="41" type="line"/>
    </contour>
    <contour>
      <point x="202" y="644" type="curve"/>
      <point x="211" y="700" type="line"/>
      <point x="97" y="700" type="line"/>
      <point x="89" y="682" type="line"/>
      <point x="143" y="685"/>
      <point x="191" y="669"/>
    </contour>
  </outline>
</glyph>
<glyph name="c" format="2">
  <advance width="365"/>
  <unicode hex="0063"/>
  <outline>
    <contour>
      <point x="118" y="-8" type="curve" smooth="yes"/>
      <point x="203" y="-8"/>
      <point x="269" y="55"/>
      <point x="316" y="144" type="curve"/>
      <point x="292" y="149" type="line"/>
      <point x="244" y="68"/>
      <point x="193" y="10"/>
      <point x="132" y="10" type="curve" smooth="yes"/>
      <point x="76" y="10"/>
      <point x="83" y="136"/>
      <point x="144" y="300" type="curve" smooth="yes"/>
      <point x="183" y="405"/>
      <point x="227" y="490"/>
      <point x="265" y="490" type="curve" smooth="yes"/>
      <point x="310" y="490"/>
      <point x="325" y="432"/>
      <point x="300" y="363" type="curve" smooth="yes"/>
      <point x="297" y="352"/>
      <point x="300" y="344"/>
      <point x="308" y="344" type="curve" smooth="yes"/>
      <point x="343" y="344"/>
      <point x="374" y="364"/>
      <point x="383" y="393" type="curve" smooth="yes"/>
      <point x="405" y="460"/>
      <point x="364" y="508"/>
      <point x="282" y="508" type="curve" smooth="yes"/>
      <point x="189" y="508"/>
      <point x="96" y="409"/>
      <point x="44" y="270" type="curve" smooth="yes"/>
      <point x="-17" y="107"/>
      <point x="12" y="-8"/>
    </contour>
  </outline>
</glyph>
<glyph name="d" format="2">
  <advance width="429"/>
  <unicode hex="0064"/>
  <outline>
    <contour>
      <point x="69" y="-8" type="curve" smooth="yes"/>
      <point x="109" y="-8"/>
      <point x="190" y="53"/>
      <point x="267" y="140" type="curve"/>
      <point x="249" y="148" type="line"/>
      <point x="193" y="88"/>
      <point x="134" y="46"/>
      <point x="107" y="46" type="curve" smooth="yes"/>
      <point x="79" y="46"/>
      <point x="81" y="128"/>
      <point x="112" y="229" type="curve" smooth="yes"/>
      <point x="157" y="370"/>
      <point x="232" y="480"/>
      <point x="293" y="480" type="curve" smooth="yes"/>
      <point x="304" y="480"/>
      <point x="325" y="456"/>
      <point x="344" y="437" type="curve"/>
      <point x="380" y="476" type="line"/>
      <point x="363" y="495"/>
      <point x="338" y="508"/>
      <point x="319" y="508" type="curve" smooth="yes"/>
      <point x="205" y="508"/>
      <point x="83" y="379"/>
      <point x="26" y="197" type="curve" smooth="yes"/>
      <point x="-11" y="77"/>
      <point x="7" y="-8"/>
    </contour>
    <contour>
      <point x="263" y="-8" type="curve" smooth="yes"/>
      <point x="326" y="-8"/>
      <point x="405" y="82"/>
      <point x="440" y="210" type="curve"/>
      <point x="410" y="200" type="line"/>
      <point x="384" y="109"/>
      <point x="343" y="44"/>
      <point x="321" y="44" type="curve" smooth="yes"/>
      <point x="301" y="44"/>
      <point x="302" y="109"/>
      <point x="327" y="185" type="curve" smooth="yes"/>
      <point x="497" y="700" type="line"/>
      <point x="421" y="700" type="line"/>
      <point x="240" y="143" type="line" smooth="yes"/>
      <point x="211" y="56"/>
      <point x="221" y="-8"/>
    </contour>
    <contour>
      <point x="416" y="644" type="curve"/>
      <point x="421" y="700" type="line"/>
      <point x="307" y="700" type="line"/>
      <point x="301" y="682" type="line"/>
      <point x="356" y="685"/>
      <point x="404" y="669"/>
    </contour>
  </outline>
</glyph>
<glyph name="e" format="2">
  <advance width="366"/>
  <unicode hex="0065"/>
  <outline>
    <contour>
      <point x="124" y="-8" type="curve" smooth="yes"/>
      <point x="189" y="-8"/>
      <point x="269" y="55"/>
      <point x="318" y="144" type="curve"/>
      <point x="294" y="149" type="line"/>
      <point x="245" y="68"/>
      <point x="181" y="10"/>
      <point x="139" y="10" type="curve" smooth="yes"/>
      <point x="83" y="10"/>
      <point x="78" y="128"/>
      <point x="133" y="280" type="curve" smooth="yes"/>
      <point x="175" y="397"/>
      <point x="233" y="490"/>
      <point x="267" y="490" type="curve" smooth="yes"/>
      <point x="293" y="490"/>
      <point x="294" y="431"/>
      <point x="270" y="361" type="curve" smooth="yes"/>
      <point x="249" y="302"/>
      <point x="182" y="261"/>
      <point x="107" y="261" type="curve"/>
      <point x="80" y="202" type="line"/>
      <point x="221" y="231"/>
      <point x="341" y="310"/>
      <point x="370" y="391" type="curve" smooth="yes"/>
      <point x="394" y="460"/>
      <point x="357" y="508"/>
      <point x="282" y="508" type="curve" smooth="yes"/>
      <point x="192" y="508"/>
      <point x="91" y="401"/>
      <point x="38" y="250" type="curve" smooth="yes"/>
      <point x="-15" y="99"/>
      <point x="21" y="-8"/>
    </contour>
  </outline>
</glyph>
<glyph name="f" format="2">
  <advance width="284"/>
  <unicode hex="0066"/>
  <outline>
    <contour>
      <point x="-27" y="-208" type="curve" smooth="yes"/>
      <point x="38" y="-208"/>
      <point x="120" y="-63"/>
      <point x="157" y="142" type="curve" smooth="yes"/>
      <point x="222" y="507" type="line" smooth="yes"/>
      <point x="240" y="608"/>
      <point x="279" y="690"/>
      <point x="316" y="690" type="curve" smooth="yes"/>
      <point x="348" y="690"/>
      <point x="359" y="639"/>
      <point x="344" y="581" type="curve" smooth="yes"/>
      <point x="340" y="568"/>
      <point x="344" y="558"/>
      <point x="354" y="558" type="curve" smooth="yes"/>
      <point x="387" y="558"/>
      <point x="416" y="578"/>
      <point x="423" y="606" type="curve" smooth="yes"/>
      <point x="437" y="663"/>
      <point x="399" y="703"/>
      <point x="331" y="703" type="curve" smooth="yes"/>
      <point x="242" y="703"/>
      <point x="163" y="616"/>
      <point x="141" y="493" type="curve" smooth="yes"/>
      <point x="76" y="128" type="line" smooth="yes"/>
      <point x="42" y="-58"/>
      <point x="-1" y="-195"/>
      <point x="-12" y="-195" type="curve" smooth="yes"/>
      <point x="-44" y="-195"/>
      <point x="-55" y="-144"/>
      <point x="-40" y="-86" type="curve" smooth="yes"/>
      <point x="-36" y="-73"/>
      <point x="-40" y="-63"/>
      <point x="-50" y="-63" type="curve" smooth="yes"/>
      <point x="-83" y="-63"/>
      <point x="-112" y="-83"/>
      <point x="-119" y="-111" type="curve" smooth="yes"/>
      <point x="-133" y="-168"/>
      <point x="-95" y="-208"/>
    </contour>
    <contour>
      <point x="52" y="408" type="line"/>
      <point x="316" y="408" type="line"/>
      <point x="329" y="450" type="line"/>
      <point x="65" y="450" type="line"/>
    </contour>
  </outline>
</glyph>
<glyph name="g" format="2">
  <advance width="442"/>
  <unicode hex="0067"/>
  <outline>
    <contour>
      <point x="113" y="-208" type="curve" smooth="yes"/>
      <point x="240" y="-208"/>
      <point x="352" y="-152"/>
      <point x="384" y="-72" type="curve" smooth="yes"/>
      <point x="401" y="-30"/>
      <point x="362" y="18"/>
      <point x="290" y="44" type="curve" smooth="yes"/>
      <point x="199" y="77"/>
      <point x="130" y="114"/>
      <point x="137" y="134" type="curve" smooth="yes"/>
      <point x="147" y="159"/>
      <point x="170" y="179"/>
      <point x="192" y="182" type="curve"/>
      <point x="168" y="191" type="line"/>
      <point x="134" y="176"/>
      <point x="102" y="143"/>
      <point x="91" y="111" type="curve" smooth="yes"/>
      <point x="77" y="71"/>
      <point x="96" y="32"/>
      <point x="138" y="17" type="curve" smooth="yes"/>
      <point x="247" y="-22"/>
      <point x="316" y="-70"/>
      <point x="306" y="-98" type="curve" smooth="yes"/>
      <point x="291" y="-139"/>
      <point x="232" y="-182"/>
      <point x="165" y="-187" type="curve" smooth="yes"/>
      <point x="38" y="-195"/>
      <point x="-30" y="-135"/>
      <point x="1" y="-57" type="curve" smooth="yes"/>
      <point x="22" y="-2"/>
      <point x="79" y="45"/>
      <point x="138" y="56" type="curve"/>
      <point x="120" y="78" type="line"/>
      <point x="22" y="56"/>
      <point x="-65" y="-6"/>
      <point x="-89" y="-73" type="curve" smooth="yes"/>
      <point x="-117" y="-152"/>
      <point x="-33" y="-208"/>
    </contour>
    <contour>
      <point x="181" y="163" type="curve" smooth="yes"/>
      <point x="262" y="163"/>
      <point x="342" y="223"/>
      <point x="373" y="307" type="curve" smooth="yes"/>
      <point x="417" y="424"/>
      <point x="392" y="507"/>
      <point x="313" y="507" type="curve" smooth="yes"/>
      <point x="224" y="507"/>
      <point x="136" y="442"/>
      <point x="102" y="351" type="curve" smooth="yes"/>
      <point x="60" y="241"/>
      <point x="93" y="163"/>
    </contour>
    <contour>
      <point x="192" y="181" type="curve" smooth="yes"/>
      <point x="149" y="181"/>
      <point x="146" y="264"/>
      <point x="185" y="367" type="curve" smooth="yes"/>
      <point x="210" y="432"/>
      <point x="258" y="488"/>
      <point x="301" y="488" type="curve" smooth="yes"/>
      <point x="335" y="488"/>
      <point x="330" y="401"/>
      <point x="288" y="292" type="curve" smooth="yes"/>
      <point x="266" y="233"/>
      <point x="226" y="181"/>
    </contour>
    <contour>
      <point x="321" y="353" type="curve"/>
      <point x="340" y="334" type="line"/>
      <point x="381" y="408"/>
      <point x="416" y="461"/>
      <point x="426" y="461" type="curve" smooth="yes"/>
      <point x="438" y="461"/>
      <point x="450" y="454"/>
      <point x="455" y="445" type="curve"/>
      <point x="494" y="482" type="line"/>
      <point x="489" y="497"/>
      <point x="465" y="508"/>
      <point x="436" y="508" type="curve" smooth="yes"/>
      <point x="411" y="508"/>
      <point x="363" y="444"/>
    </contour>
  </outline>
</glyph>
<glyph name="h" format="2">
  <advance width="423"/>
  <unicode hex="0068"/>
  <outline>
    <contour>
      <point x="186" y="-8" type="curve" smooth="yes"/>
      <point x="252" y="-8"/>
      <point x="336" y="104"/>
      <point x="388" y="262" type="curve" smooth="yes"/>
      <point x="434" y="406"/>
      <point x="420" y="508"/>
      <point x="355" y="508" type="curve" smooth="yes"/>
      <point x="292" y="508"/>
      <point x="191" y="399"/>
      <point x="112" y="246" type="curve"/>
      <point x="136" y="228" type="line"/>
      <point x="191" y="349"/>
      <point x="257" y="434"/>
      <point x="296" y="434" type="curve" smooth="yes"/>
      <point x="353" y="434"/>
      <point x="361" y="326"/>
      <point x="314" y="187" type="curve" smooth="yes"/>
      <point x="285" y="100"/>
      <point x="253" y="39"/>
      <point x="237" y="39" type="curve" smooth="yes"/>
      <point x="197" y="39"/>
      <point x="238" y="106"/>
      <point x="198" y="106" type="curve" smooth="yes"/>
      <point x="177" y="106"/>
      <point x="158" y="95"/>
      <point x="153" y="80" type="curve" smooth="yes"/>
      <point x="135" y="28"/>
      <point x="148" y="-8"/>
    </contour>
    <contour>
      <point x="-6" y="0" type="line"/>
      <point x="71" y="0" type="line"/>
      <point x="284" y="700" type="line"/>
      <point x="209" y="700" type="line"/>
    </contour>
    <contour>
      <point x="200" y="644" type="curve"/>
      <point x="209" y="700" type="line"/>
      <point x="95" y="700" type="line"/>
      <point x="87" y="682" type="line"/>
      <point x="141" y="685"/>
      <point x="188" y="669"/>
    </contour>
  </outline>
</glyph>
<glyph name="i" format="2">
  <advance width="244"/>
  <unicode hex="0069"/>
  <outline>
    <contour>
      <point x="212" y="612" type="curve" smooth="yes"/>
      <point x="243" y="612"/>
      <point x="274" y="633"/>
      <point x="282" y="659" type="curve" smooth="yes"/>
      <point x="290" y="685"/>
      <point x="272" y="706"/>
      <point x="241" y="706" type="curve" smooth="yes"/>
      <point x="210" y="706"/>
      <point x="180" y="685"/>
      <point x="172" y="659" type="curve" smooth="yes"/>
      <point x="164" y="633"/>
      <point x="181" y="612"/>
    </contour>
    <contour>
      <point x="119" y="323" type="curve" smooth="yes"/>
      <point x="53" y="143" type="line" smooth="yes"/>
      <point x="20" y="55"/>
      <point x="27" y="-8"/>
      <point x="71" y="-8" type="curve" smooth="yes"/>
      <point x="131" y="-8"/>
      <point x="211" y="86"/>
      <point x="264" y="218" type="curve"/>
      <point x="234" y="208" type="line"/>
      <point x="197" y="117"/>
      <point x="154" y="52"/>
      <point x="130" y="52" type="curve" smooth="yes"/>
      <point x="111" y="52"/>
      <point x="117" y="113"/>
      <point x="144" y="185" type="curve" smooth="yes"/>
      <point x="237" y="426" type="line" smooth="yes"/>
      <point x="257" y="474"/>
      <point x="245" y="508"/>
      <point x="210" y="508" type="curve" smooth="yes"/>
      <point x="137" y="508"/>
      <point x="51" y="418"/>
      <point x="2" y="290" type="curve"/>
      <point x="32" y="300" type="line"/>
      <point x="67" y="391"/>
      <point x="114" y="456"/>
      <point x="146" y="456" type="curve" smooth="yes"/>
      <point x="157" y="456"/>
      <point x="146" y="395"/>
    </contour>
  </outline>
</glyph>
<glyph name="j" format="2">
  <advance width="244"/>
  <unicode hex="006A"/>
  <outline>
    <contour>
      <point x="-84" y="-209" type="curve" smooth="yes"/>
      <point x="-15" y="-209"/>
      <point x="76" y="-83"/>
      <point x="137" y="96" type="curve" smooth="yes"/>
      <point x="248" y="426" type="line" smooth="yes"/>
      <point x="264" y="474"/>
      <point x="251" y="508"/>
      <point x="216" y="508" type="curve" smooth="yes"/>
      <point x="143" y="508"/>
      <point x="62" y="418"/>
      <point x="20" y="290" type="curve"/>
      <point x="50" y="300" type="line"/>
      <point x="80" y="391"/>
      <point x="124" y="456"/>
      <point x="156" y="456" type="curve" smooth="yes"/>
      <point x="169" y="456"/>
      <point x="160" y="401"/>
      <point x="135" y="323" type="curve" smooth="yes"/>
      <point x="55" y="82" type="line" smooth="yes"/>
      <point x="1" y="-79"/>
      <point x="-51" y="-195"/>
      <point x="-71" y="-195" type="curve" smooth="yes"/>
      <point x="-103" y="-195"/>
      <point x="-113" y="-150"/>
      <point x="-95" y="-86" type="curve" smooth="yes"/>
      <point x="-91" y="-73"/>
      <point x="-95" y="-63"/>
      <point x="-104" y="-63" type="curve" smooth="yes"/>
      <point x="-140" y="-63"/>
      <point x="-170" y="-83"/>
      <point x="-176" y="-113" type="curve"/>
      <point x="-193" y="-170"/>
      <point x="-155" y="-209"/>
    </contour>
    <contour>
      <point x="217" y="612" type="curve" smooth="yes"/>
      <point x="250" y="612"/>
      <point x="277" y="631"/>
      <point x="283" y="659" type="curve" smooth="yes"/>
      <point x="291" y="687"/>
      <point x="273" y="706"/>
      <point x="241" y="706" type="curve" smooth="yes"/>
      <point x="209" y="706"/>
      <point x="181" y="687"/>
      <point x="173" y="659" type="curve" smooth="yes"/>
      <point x="167" y="631"/>
      <point x="185" y="612"/>
    </contour>
  </outline>
</glyph>
<glyph name="k" format="2">
  <advance width="367"/>
  <unicode hex="006B"/>
  <outline>
    <contour>
      <point x="54" y="183" type="line"/>
      <point x="305" y="340" type="line" smooth="yes"/>
      <point x="359" y="374"/>
      <point x="395" y="418"/>
      <point x="393" y="461" type="curve" smooth="yes"/>
      <point x="392" y="489"/>
      <point x="370" y="508"/>
      <point x="339" y="508" type="curve" smooth="yes"/>
      <point x="272" y="508"/>
      <point x="178" y="421"/>
      <point x="112" y="298" type="curve"/>
      <point x="114" y="263" type="line"/>
      <point x="170" y="375"/>
      <point x="247" y="454"/>
      <point x="300" y="454" type="curve" smooth="yes"/>
      <point x="312" y="454"/>
      <point x="321" y="431"/>
      <point x="321" y="413" type="curve" smooth="yes"/>
      <point x="321" y="390"/>
      <point x="297" y="359"/>
      <point x="263" y="338" type="curve" smooth="yes"/>
      <point x="50" y="206" type="line"/>
    </contour>
    <contour>
      <point x="-31" y="0" type="line"/>
      <point x="47" y="0" type="line"/>
      <point x="260" y="700" type="line"/>
      <point x="185" y="700" type="line"/>
    </contour>
    <contour>
      <point x="265" y="-8" type="curve" smooth="yes"/>
      <point x="301" y="-8"/>
      <point x="350" y="29"/>
      <point x="383" y="82" type="curve"/>
      <point x="362" y="87" type="line"/>
      <point x="346" y="66"/>
      <point x="329" y="50"/>
      <point x="321" y="49" type="curve" smooth="yes"/>
      <point x="294" y="46"/>
      <point x="245" y="160"/>
      <point x="226" y="311" type="curve"/>
      <point x="156" y="262" type="line"/>
      <point x="174" y="104"/>
      <point x="229" y="-8"/>
    </contour>
    <contour>
      <point x="176" y="644" type="curve"/>
      <point x="185" y="700" type="line"/>
      <point x="71" y="700" type="line"/>
      <point x="63" y="682" type="line"/>
      <point x="118" y="685"/>
      <point x="165" y="669"/>
    </contour>
  </outline>
</glyph>
<glyph name="l" format="2">
  <advance width="244"/>
  <unicode hex="006C"/>
  <outline>
    <contour>
      <point x="57" y="-8" type="curve" smooth="yes"/>
      <point x="120" y="-8"/>
      <point x="194" y="82"/>
      <point x="236" y="210" type="curve"/>
      <point x="206" y="200" type="line"/>
      <point x="175" y="109"/>
      <point x="136" y="44"/>
      <point x="114" y="44" type="curve" smooth="yes"/>
      <point x="94" y="44"/>
      <point x="98" y="108"/>
      <point x="123" y="185" type="curve" smooth="yes"/>
      <point x="280" y="700" type="line"/>
      <point x="205" y="700" type="line"/>
      <point x="34" y="143" type="line" smooth="yes"/>
      <point x="5" y="55"/>
      <point x="15" y="-8"/>
    </contour>
    <contour>
      <point x="196" y="644" type="curve"/>
      <point x="205" y="700" type="line"/>
      <point x="91" y="700" type="line"/>
      <point x="83" y="682" type="line"/>
      <point x="138" y="685"/>
      <point x="185" y="669"/>
    </contour>
  </outline>
</glyph>
<glyph name="m" format="2">
  <advance width="724"/>
  <unicode hex="006D"/>
  <outline>
    <contour>
      <point x="527" y="-8" type="curve" smooth="yes"/>
      <point x="587" y="-8"/>
      <point x="667" y="86"/>
      <point x="720" y="218" type="curve"/>
      <point x="690" y="208" type="line"/>
      <point x="653" y="117"/>
      <point x="610" y="52"/>
      <point x="586" y="52" type="curve" smooth="yes"/>
      <point x="567" y="52"/>
      <point x="573" y="113"/>
      <point x="600" y="185" type="curve" smooth="yes"/>
      <point x="617" y="230"/>
      <point x="645" y="298"/>
      <point x="668" y="359" type="curve" smooth="yes"/>
      <point x="701" y="446"/>
      <point x="687" y="508"/>
      <point x="635" y="508" type="curve" smooth="yes"/>
      <point x="575" y="508"/>
      <point x="482" y="417"/>
      <point x="405" y="288" type="curve"/>
      <point x="405" y="253" type="line"/>
      <point x="467" y="365"/>
      <point x="543" y="444"/>
      <point x="592" y="444" type="curve" smooth="yes"/>
      <point x="607" y="444"/>
      <point x="599" y="382"/>
      <point x="573" y="308" type="curve" smooth="yes"/>
      <point x="509" y="143" type="line" smooth="yes"/>
      <point x="476" y="55"/>
      <point x="483" y="-8"/>
    </contour>
    <contour>
      <point x="20" y="0" type="curve"/>
      <point x="95" y="0" type="line"/>
      <point x="189" y="250"/>
      <point x="266" y="448"/>
      <point x="235" y="365" type="curve"/>
      <point x="266" y="449"/>
      <point x="257" y="508"/>
      <point x="214" y="508" type="curve" smooth="yes"/>
      <point x="153" y="508"/>
      <point x="75" y="418"/>
      <point x="26" y="290" type="curve"/>
      <point x="56" y="300" type="line"/>
      <point x="91" y="391"/>
      <point x="132" y="456"/>
      <point x="155" y="456" type="curve" smooth="yes"/>
      <point x="175" y="456"/>
      <point x="170" y="395"/>
      <point x="143" y="323" type="curve" smooth="yes"/>
      <point x="106" y="219"/>
      <point x="55" y="85"/>
    </contour>
    <contour>
      <point x="353" y="308" type="curve"/>
      <point x="231" y="0" type="line"/>
      <point x="306" y="0" type="line"/>
      <point x="323" y="45"/>
      <point x="425" y="298"/>
      <point x="448" y="359" type="curve" smooth="yes"/>
      <point x="481" y="446"/>
      <point x="467" y="508"/>
      <point x="415" y="508" type="curve" smooth="yes"/>
      <point x="358" y="508"/>
      <point x="266" y="417"/>
      <point x="189" y="288" type="curve"/>
      <point x="189" y="253" type="line"/>
      <point x="251" y="365"/>
      <point x="323" y="444"/>
      <point x="367" y="444" type="curve" smooth="yes"/>
      <point x="385" y="444"/>
      <point x="379" y="382"/>
    </contour>
  </outline>
</glyph>
<glyph name="n" format="2">
  <advance width="492"/>
  <unicode hex="006E"/>
  <outline>
    <contour>
      <point x="301" y="-8" type="curve" smooth="yes"/>
      <point x="361" y="-8"/>
      <point x="441" y="86"/>
      <point x="494" y="218" type="curve"/>
      <point x="464" y="208" type="line"/>
      <point x="427" y="117"/>
      <point x="384" y="52"/>
      <point x="360" y="52" type="curve" smooth="yes"/>
      <point x="341" y="52"/>
      <point x="347" y="113"/>
      <point x="374" y="185" type="curve" smooth="yes"/>
      <point x="391" y="230"/>
      <point x="418" y="298"/>
      <point x="441" y="359" type="curve" smooth="yes"/>
      <point x="474" y="446"/>
      <point x="461" y="508"/>
      <point x="409" y="508" type="curve" smooth="yes"/>
      <point x="351" y="508"/>
      <point x="257" y="417"/>
      <point x="180" y="288" type="curve"/>
      <point x="180" y="253" type="line"/>
      <point x="242" y="365"/>
      <point x="316" y="444"/>
      <point x="361" y="444" type="curve" smooth="yes"/>
      <point x="379" y="444"/>
      <point x="373" y="392"/>
      <point x="347" y="318" type="curve" smooth="yes"/>
      <point x="283" y="143" type="line" smooth="yes"/>
      <point x="250" y="55"/>
      <point x="257" y="-8"/>
    </contour>
    <contour>
      <point x="14" y="0" type="curve"/>
      <point x="89" y="0" type="line"/>
      <point x="183" y="250"/>
      <point x="260" y="448"/>
      <point x="229" y="365" type="curve"/>
      <point x="260" y="449"/>
      <point x="251" y="508"/>
      <point x="208" y="508" type="curve" smooth="yes"/>
      <point x="147" y="508"/>
      <point x="69" y="418"/>
      <point x="20" y="290" type="curve"/>
      <point x="50" y="300" type="line"/>
      <point x="85" y="391"/>
      <point x="126" y="456"/>
      <point x="149" y="456" type="curve" smooth="yes"/>
      <point x="169" y="456"/>
      <point x="164" y="405"/>
      <point x="137" y="333" type="curve" smooth="yes"/>
      <point x="100" y="229"/>
      <point x="49" y="85"/>
    </contour>
  </outline>
</glyph>
<glyph name="o" format="2">
  <advance width="409"/>
  <unicode hex="006F"/>
  <anchor x="271" y="435" name="top"/>
  <anchor x="139" y="0" name="bottom"/>
  <anchor x="205" y="218" name="center"/>
  <anchor x="455" y="435" name="topright"/>
  <anchor x="305" y="10" name="ogonek"/>
  <outline>
    <contour>
      <point x="143" y="-8" type="curve" smooth="yes"/>
      <point x="232" y="-8"/>
      <point x="330" y="86"/>
      <point x="381" y="220" type="curve" smooth="yes"/>
      <point x="445" y="389"/>
      <point x="405" y="508"/>
      <point x="285" y="508" type="curve" smooth="yes"/>
      <point x="197" y="508"/>
      <point x="97" y="410"/>
      <point x="45" y="272" type="curve" smooth="yes"/>
      <point x="-16" y="108"/>
      <point x="25" y="-8"/>
    </contour>
    <contour>
      <point x="154" y="10" type="curve" smooth="yes"/>
      <point x="86" y="10"/>
      <point x="82" y="147"/>
      <point x="144" y="312" type="curve" smooth="yes"/>
      <point x="183" y="416"/>
      <point x="237" y="490"/>
      <point x="275" y="490" type="curve" smooth="yes"/>
      <point x="343" y="490"/>
      <point x="346" y="350"/>
      <point x="282" y="180" type="curve" smooth="yes"/>
      <point x="244" y="80"/>
      <point x="191" y="10"/>
    </contour>
  </outline>
</glyph>
<glyph name="p" format="2">
  <advance width="429"/>
  <unicode hex="0070"/>
  <outline>
    <contour>
      <point x="-124" y="-200" type="line"/>
      <point x="160" y="-200" type="line"/>
      <point x="169" y="-182" type="line"/>
      <point x="110" y="-182" type="line" smooth="yes"/>
      <point x="78" y="-182"/>
      <point x="61" y="-150"/>
      <point x="68" y="-120" type="curve" smooth="yes"/>
      <point x="238" y="568" type="line"/>
      <point x="167" y="562" type="line"/>
      <point x="-12" y="-156" type="line" smooth="yes"/>
      <point x="-15" y="-171"/>
      <point x="-29" y="-182"/>
      <point x="-45" y="-182" type="curve" smooth="yes"/>
      <point x="-116" y="-182" type="line"/>
    </contour>
    <contour>
      <point x="171" y="43" type="curve" smooth="yes"/>
      <point x="263" y="43"/>
      <point x="363" y="140"/>
      <point x="412" y="277" type="curve" smooth="yes"/>
      <point x="460" y="411"/>
      <point x="417" y="506"/>
      <point x="307" y="506" type="curve" smooth="yes"/>
      <point x="221" y="506"/>
      <point x="94" y="431"/>
      <point x="0" y="325" type="curve"/>
      <point x="17" y="312" type="line"/>
      <point x="104" y="405"/>
      <point x="206" y="471"/>
      <point x="264" y="471" type="curve" smooth="yes"/>
      <point x="346" y="471"/>
      <point x="372" y="371"/>
      <point x="326" y="243" type="curve" smooth="yes"/>
      <point x="291" y="145"/>
      <point x="222" y="65"/>
      <point x="160" y="65" type="curve" smooth="yes"/>
      <point x="142" y="65"/>
      <point x="115" y="79"/>
      <point x="96" y="98" type="curve"/>
      <point x="87" y="66" type="line"/>
      <point x="105" y="53"/>
      <point x="139" y="43"/>
    </contour>
  </outline>
</glyph>
<glyph name="q" format="2">
  <advance width="409"/>
  <unicode hex="0071"/>
  <outline>
    <contour>
      <point x="62" y="-200" type="line"/>
      <point x="354" y="-200" type="line"/>
      <point x="361" y="-182" type="line"/>
      <point x="347" y="-182"/>
      <point x="335" y="-182"/>
      <point x="318" y="-182" type="curve" smooth="yes"/>
      <point x="274" y="-182"/>
      <point x="251" y="-153"/>
      <point x="261" y="-101" type="curve"/>
      <point x="404" y="475" type="line"/>
      <point x="332" y="471" type="line"/>
      <point x="179" y="-152" type="line" smooth="yes"/>
      <point x="174" y="-170"/>
      <point x="149" y="-182"/>
      <point x="118" y="-182" type="curve" smooth="yes"/>
      <point x="68" y="-182" type="line"/>
    </contour>
    <contour>
      <point x="74" y="-8" type="curve" smooth="yes"/>
      <point x="114" y="-8"/>
      <point x="195" y="53"/>
      <point x="272" y="140" type="curve"/>
      <point x="254" y="148" type="line"/>
      <point x="198" y="88"/>
      <point x="139" y="46"/>
      <point x="112" y="46" type="curve" smooth="yes"/>
      <point x="84" y="46"/>
      <point x="86" y="128"/>
      <point x="117" y="229" type="curve" smooth="yes"/>
      <point x="162" y="370"/>
      <point x="237" y="480"/>
      <point x="298" y="480" type="curve" smooth="yes"/>
      <point x="309" y="480"/>
      <point x="330" y="466"/>
      <point x="349" y="447" type="curve"/>
      <point x="385" y="476" type="line"/>
      <point x="368" y="495"/>
      <point x="343" y="508"/>
      <point x="324" y="508" type="curve" smooth="yes"/>
      <point x="210" y="508"/>
      <point x="88" y="379"/>
      <point x="31" y="197" type="curve" smooth="yes"/>
      <point x="-6" y="77"/>
      <point x="12" y="-8"/>
    </contour>
  </outline>
</glyph>
<glyph name="r" format="2">
  <advance width="365"/>
  <unicode hex="0072"/>
  <outline>
    <contour>
      <point x="39" y="0" type="curve"/>
      <point x="114" y="0" type="line"/>
      <point x="186" y="250"/>
      <point x="241" y="448"/>
      <point x="217" y="365" type="curve"/>
      <point x="241" y="449"/>
      <point x="233" y="508"/>
      <point x="189" y="508" type="curve" smooth="yes"/>
      <point x="130" y="508"/>
      <point x="60" y="418"/>
      <point x="20" y="290" type="curve"/>
      <point x="50" y="300" type="line"/>
      <point x="78" y="391"/>
      <point x="113" y="456"/>
      <point x="135" y="456" type="curve" smooth="yes"/>
      <point x="155" y="456"/>
      <point x="156" y="395"/>
      <point x="135" y="323" type="curve" smooth="yes"/>
      <point x="106" y="221"/>
      <point x="66" y="87"/>
    </contour>
    <contour>
      <point x="121" y="158" type="curve"/>
      <point x="127" y="130" type="line"/>
      <point x="203" y="312"/>
      <point x="284" y="440"/>
      <point x="323" y="440" type="curve" smooth="yes"/>
      <point x="337" y="440"/>
      <point x="347" y="403"/>
      <point x="361" y="403" type="curve" smooth="yes"/>
      <point x="388" y="403"/>
      <point x="415" y="425"/>
      <point x="426" y="456" type="curve" smooth="yes"/>
      <point x="437" y="486"/>
      <point x="406" y="508"/>
      <point x="350" y="508" type="curve" smooth="yes"/>
      <point x="306" y="508"/>
      <point x="211" y="363"/>
    </contour>
  </outline>
</glyph>
<glyph name="s" format="2">
  <advance width="365"/>
  <unicode hex="0073"/>
  <outline>
    <contour>
      <point x="211" y="95" type="curve" smooth="yes"/>
      <point x="195" y="51"/>
      <point x="164" y="10"/>
      <point x="136" y="10" type="curve" smooth="yes"/>
      <point x="96" y="10"/>
      <point x="82" y="63"/>
      <point x="103" y="124" type="curve" smooth="yes"/>
      <point x="108" y="137"/>
      <point x="105" y="147"/>
      <point x="96" y="147" type="curve" smooth="yes"/>
      <point x="62" y="147"/>
      <point x="31" y="128"/>
      <point x="22" y="100" type="curve" smooth="yes"/>
      <point x="0" y="37"/>
      <point x="38" y="-8"/>
      <point x="115" y="-8" type="curve" smooth="yes"/>
      <point x="193" y="-8"/>
      <point x="268" y="48"/>
      <point x="297" y="128" type="curve" smooth="yes"/>
      <point x="340" y="247"/>
      <point x="141" y="281"/>
      <point x="195" y="422" type="curve" smooth="yes"/>
      <point x="207" y="455"/>
      <point x="230" y="489"/>
      <point x="251" y="489" type="curve" smooth="yes"/>
      <point x="293" y="489"/>
      <point x="307" y="433"/>
      <point x="284" y="367" type="curve" smooth="yes"/>
      <point x="279" y="354"/>
      <point x="282" y="344"/>
      <point x="291" y="344" type="curve" smooth="yes"/>
      <point x="325" y="344"/>
      <point x="356" y="363"/>
      <point x="365" y="391" type="curve" smooth="yes"/>
      <point x="389" y="459"/>
      <point x="350" y="507"/>
      <point x="272" y="507" type="curve" smooth="yes"/>
      <point x="200" y="507"/>
      <point x="134" y="467"/>
      <point x="113" y="410" type="curve" smooth="yes"/>
      <point x="49" y="239"/>
      <point x="258" y="226"/>
    </contour>
  </outline>
</glyph>
<glyph name="t" format="2">
  <advance width="244"/>
  <unicode hex="0074"/>
  <outline>
    <contour>
      <point x="64" y="-8" type="curve" smooth="yes"/>
      <point x="128" y="-8"/>
      <point x="199" y="86"/>
      <point x="237" y="218" type="curve"/>
      <point x="207" y="208" type="line"/>
      <point x="180" y="117"/>
      <point x="143" y="52"/>
      <point x="118" y="52" type="curve" smooth="yes"/>
      <point x="100" y="52"/>
      <point x="101" y="116"/>
      <point x="122" y="193" type="curve" smooth="yes"/>
      <point x="150" y="297"/>
      <point x="199" y="469"/>
      <point x="240" y="609" type="curve"/>
      <point x="147" y="599" type="line"/>
      <point x="36" y="151" type="line" smooth="yes"/>
      <point x="10" y="58"/>
      <point x="22" y="-8"/>
    </contour>
    <contour>
      <point x="37" y="500" type="line"/>
      <point x="24" y="458" type="line"/>
      <point x="288" y="458" type="line"/>
      <point x="301" y="500" type="line"/>
    </contour>
  </outline>
</glyph>
<glyph name="u" format="2">
  <advance width="504"/>
  <unicode hex="0075"/>
  <anchor x="318" y="435" name="top"/>
  <anchor x="186" y="0" name="bottom"/>
  <anchor x="391" y="10" name="ogonek"/>
  <anchor x="550" y="435" name="topright"/>
  <outline>
    <contour>
      <point x="109" y="-8" type="curve" smooth="yes"/>
      <point x="167" y="-8"/>
      <point x="260" y="83"/>
      <point x="337" y="212" type="curve"/>
      <point x="337" y="247" type="line"/>
      <point x="275" y="135"/>
      <point x="200" y="56"/>
      <point x="152" y="56" type="curve" smooth="yes"/>
      <point x="137" y="56"/>
      <point x="145" y="118"/>
      <point x="171" y="192" type="curve"/>
      <point x="171" y="189"/>
      <point x="198" y="258"/>
      <point x="235" y="357" type="curve" smooth="yes"/>
      <point x="268" y="445"/>
      <point x="269" y="508"/>
      <point x="237" y="508" type="curve" smooth="yes"/>
      <point x="165" y="508"/>
      <point x="77" y="414"/>
      <point x="24" y="282" type="curve"/>
      <point x="54" y="292" type="line"/>
      <point x="91" y="383"/>
      <point x="143" y="448"/>
      <point x="178" y="448" type="curve" smooth="yes"/>
      <point x="185" y="448"/>
      <point x="171" y="387"/>
      <point x="144" y="315" type="curve" smooth="yes"/>
      <point x="127" y="270"/>
      <point x="100" y="202"/>
      <point x="77" y="141" type="curve" smooth="yes"/>
      <point x="44" y="54"/>
      <point x="57" y="-8"/>
    </contour>
    <contour>
      <point x="310" y="-8" type="curve" smooth="yes"/>
      <point x="371" y="-8"/>
      <point x="449" y="82"/>
      <point x="498" y="210" type="curve"/>
      <point x="468" y="200" type="line"/>
      <point x="433" y="109"/>
      <point x="392" y="44"/>
      <point x="369" y="44" type="curve" smooth="yes"/>
      <point x="349" y="44"/>
      <point x="354" y="105"/>
      <point x="381" y="177" type="curve" smooth="yes"/>
      <point x="411" y="261"/>
      <point x="461" y="395"/>
      <point x="504" y="500" type="curve"/>
      <point x="429" y="500" type="line"/>
      <point x="335" y="250"/>
      <point x="258" y="52"/>
      <point x="289" y="135" type="curve"/>
      <point x="258" y="51"/>
      <point x="267" y="-8"/>
    </contour>
  </outline>
</glyph>
<glyph name="v" format="2">
  <advance width="409"/>
  <unicode hex="0076"/>
  <outline>
    <contour>
      <point x="4" y="290" type="curve"/>
      <point x="34" y="300" type="line"/>
      <point x="67" y="391"/>
      <point x="108" y="456"/>
      <point x="133" y="456" type="curve" smooth="yes"/>
      <point x="171" y="456"/>
      <point x="192" y="409"/>
      <point x="176" y="357" type="curve" smooth="yes"/>
      <point x="166" y="324"/>
      <point x="78" y="216"/>
      <point x="64" y="176" type="curve" smooth="yes"/>
      <point x="26" y="68"/>
      <point x="60" y="-8"/>
      <point x="146" y="-8" type="curve" smooth="yes"/>
      <point x="227" y="-8"/>
      <point x="326" y="106"/>
      <point x="385" y="268" type="curve" smooth="yes"/>
      <point x="436" y="408"/>
      <point x="419" y="507"/>
      <point x="348" y="507" type="curve" smooth="yes"/>
      <point x="323" y="507"/>
      <point x="299" y="487"/>
      <point x="289" y="460" type="curve" smooth="yes"/>
      <point x="280" y="436"/>
      <point x="284" y="419"/>
      <point x="301" y="419" type="curve" smooth="yes"/>
      <point x="353" y="419"/>
      <point x="374" y="329"/>
      <point x="333" y="216" type="curve" smooth="yes"/>
      <point x="300" y="123"/>
      <point x="237" y="57"/>
      <point x="189" y="57" type="curve" smooth="yes"/>
      <point x="120" y="57"/>
      <point x="109" y="122"/>
      <point x="156" y="256" type="curve" smooth="yes"/>
      <point x="195" y="365"/>
      <point x="226" y="372"/>
      <point x="249" y="444" type="curve" smooth="yes"/>
      <point x="260" y="481"/>
      <point x="237" y="507"/>
      <point x="192" y="507" type="curve" smooth="yes"/>
      <point x="128" y="507"/>
      <point x="50" y="417"/>
    </contour>
  </outline>
</glyph>
<glyph name="w" format="2">
  <advance width="613"/>
  <unicode hex="0077"/>
  <outline>
    <contour>
      <point x="342" y="-8" type="curve" smooth="yes"/>
      <point x="429" y="-8"/>
      <point x="532" y="106"/>
      <point x="591" y="268" type="curve" smooth="yes"/>
      <point x="642" y="408"/>
      <point x="627" y="507"/>
      <point x="554" y="507" type="curve" smooth="yes"/>
      <point x="529" y="507"/>
      <point x="505" y="488"/>
      <point x="495" y="460" type="curve" smooth="yes"/>
      <point x="486" y="436"/>
      <point x="491" y="419"/>
      <point x="507" y="419" type="curve" smooth="yes"/>
      <point x="566" y="419"/>
      <point x="582" y="335"/>
      <point x="539" y="216" type="curve" smooth="yes"/>
      <point x="506" y="123"/>
      <point x="439" y="57"/>
      <point x="385" y="57" type="curve" smooth="yes"/>
      <point x="362" y="57"/>
      <point x="330" y="70"/>
      <point x="314" y="89" type="curve"/>
      <point x="328" y="127"/>
      <point x="354" y="159"/>
      <point x="377" y="231" type="curve" smooth="yes"/>
      <point x="410" y="325"/>
      <point x="435" y="454"/>
      <point x="398" y="454" type="curve" smooth="yes"/>
      <point x="347" y="454"/>
      <point x="292" y="356"/>
      <point x="252" y="218" type="curve" smooth="yes"/>
      <point x="237" y="168"/>
      <point x="227" y="104"/>
      <point x="234" y="64" type="curve"/>
      <point x="221" y="60"/>
      <point x="204" y="57"/>
      <point x="194" y="57" type="curve" smooth="yes"/>
      <point x="134" y="57"/>
      <point x="115" y="139"/>
      <point x="156" y="256" type="curve" smooth="yes"/>
      <point x="195" y="365"/>
      <point x="231" y="372"/>
      <point x="254" y="444" type="curve" smooth="yes"/>
      <point x="265" y="481"/>
      <point x="241" y="507"/>
      <point x="197" y="507" type="curve" smooth="yes"/>
      <point x="133" y="507"/>
      <point x="55" y="417"/>
      <point x="9" y="290" type="curve"/>
      <point x="39" y="300" type="line"/>
      <point x="72" y="391"/>
      <point x="113" y="456"/>
      <point x="138" y="456" type="curve" smooth="yes"/>
      <point x="176" y="456"/>
      <point x="192" y="409"/>
      <point x="176" y="357" type="curve" smooth="yes"/>
      <point x="166" y="324"/>
      <point x="83" y="216"/>
      <point x="69" y="176" type="curve" smooth="yes"/>
      <point x="31" y="68"/>
      <point x="65" y="-8"/>
      <point x="151" y="-8" type="curve" smooth="yes"/>
      <point x="181" y="-8"/>
      <point x="223" y="7"/>
      <point x="254" y="29" type="curve"/>
      <point x="273" y="7"/>
      <point x="309" y="-8"/>
    </contour>
    <contour>
      <point x="304" y="134" type="curve"/>
      <point x="292" y="179"/>
      <point x="299" y="259"/>
      <point x="322" y="328" type="curve" smooth="yes"/>
      <point x="336" y="368"/>
      <point x="360" y="397"/>
      <point x="379" y="397" type="curve" smooth="yes"/>
      <point x="402" y="397"/>
      <point x="390" y="346"/>
      <point x="365" y="273" type="curve" smooth="yes"/>
      <point x="356" y="241"/>
      <point x="337" y="183"/>
    </contour>
  </outline>
</glyph>
<glyph name="x" format="2">
  <advance width="498"/>
  <unicode hex="0078"/>
  <outline>
    <contour>
      <point x="8" y="-3" type="curve" smooth="yes"/>
      <point x="90" y="-3"/>
      <point x="396" y="419"/>
      <point x="439" y="419" type="curve" smooth="yes"/>
      <point x="470" y="419"/>
      <point x="498" y="404"/>
      <point x="501" y="383" type="curve"/>
      <point x="553" y="452" type="line"/>
      <point x="538" y="485"/>
      <point x="522" y="508"/>
      <point x="506" y="508" type="curve" smooth="yes"/>
      <point x="446" y="508"/>
      <point x="112" y="91"/>
      <point x="85" y="91" type="curve" smooth="yes"/>
      <point x="68" y="91"/>
      <point x="46" y="108"/>
      <point x="38" y="132" type="curve"/>
      <point x="-26" y="77" type="line"/>
      <point x="-15" y="30"/>
      <point x="-4" y="-3"/>
    </contour>
    <contour>
      <point x="291" y="-3" type="curve" smooth="yes"/>
      <point x="326" y="-3"/>
      <point x="379" y="30"/>
      <point x="418" y="77" type="curve"/>
      <point x="396" y="82" type="line"/>
      <point x="374" y="58"/>
      <point x="346" y="41"/>
      <point x="329" y="41" type="curve" smooth="yes"/>
      <point x="302" y="41"/>
      <point x="295" y="508"/>
      <point x="235" y="508" type="curve" smooth="yes"/>
      <point x="198" y="508"/>
      <point x="133" y="472"/>
      <point x="80" y="422" type="curve"/>
      <point x="82" y="403" type="line"/>
      <point x="106" y="436"/>
      <point x="145" y="459"/>
      <point x="177" y="459" type="curve" smooth="yes"/>
      <point x="220" y="459"/>
      <point x="209" y="-3"/>
    </contour>
  </outline>
</glyph>
<glyph name="y" format="2">
  <advance width="405"/>
  <unicode hex="0079"/>
  <outline>
    <contour>
      <point x="-43" y="-209" type="curve" smooth="yes"/>
      <point x="5" y="-209"/>
      <point x="66" y="-89"/>
      <point x="181" y="80" type="curve" smooth="yes"/>
      <point x="258" y="193"/>
      <point x="378" y="320"/>
      <point x="421" y="461" type="curve" smooth="yes"/>
      <point x="429" y="487"/>
      <point x="406" y="508"/>
      <point x="369" y="508" type="curve" smooth="yes"/>
      <point x="336" y="508"/>
      <point x="310" y="484"/>
      <point x="310" y="453" type="curve" smooth="yes"/>
      <point x="310" y="448"/>
      <point x="315" y="435"/>
      <point x="318" y="429" type="curve" smooth="yes"/>
      <point x="346" y="369"/>
      <point x="260" y="233"/>
      <point x="161" y="90" type="curve" smooth="yes"/>
      <point x="20" y="-113"/>
      <point x="-45" y="-194"/>
      <point x="-31" y="-194" type="curve" smooth="yes"/>
      <point x="-51" y="-194"/>
      <point x="-86" y="-151"/>
      <point x="-65" y="-97" type="curve" smooth="yes"/>
      <point x="-56" y="-73"/>
      <point x="-61" y="-62"/>
      <point x="-70" y="-62" type="curve" smooth="yes"/>
      <point x="-102" y="-62"/>
      <point x="-131" y="-84"/>
      <point x="-142" y="-114" type="curve" smooth="yes"/>
      <point x="-160" y="-169"/>
      <point x="-114" y="-209"/>
    </contour>
    <contour>
      <point x="22" y="315" type="curve"/>
      <point x="59" y="315" type="line"/>
      <point x="78" y="375"/>
      <point x="114" y="434"/>
      <point x="141" y="434" type="curve" smooth="yes"/>
      <point x="176" y="434"/>
      <point x="168" y="236"/>
      <point x="132" y="37" type="curve"/>
      <point x="195" y="95" type="line"/>
      <point x="245" y="330"/>
      <point x="256" y="508"/>
      <point x="166" y="508" type="curve" smooth="yes"/>
      <point x="117" y="508"/>
      <point x="57" y="429"/>
    </contour>
  </outline>
</glyph>
<glyph name="z" format="2">
  <advance width="398"/>
  <unicode hex="007A"/>
  <outline>
    <contour>
      <point x="-16" y="-8" type="line"/>
      <point x="415" y="493" type="line"/>
      <point x="400" y="503" type="line"/>
      <point x="-33" y="2" type="line"/>
    </contour>
    <contour>
      <point x="-33" y="2" type="curve"/>
      <point x="-2" y="-20" type="line"/>
      <point x="15" y="3"/>
      <point x="48" y="19"/>
      <point x="79" y="19" type="curve" smooth="yes"/>
      <point x="97" y="19"/>
      <point x="150" y="-14"/>
      <point x="191" y="-14" type="curve" smooth="yes"/>
      <point x="241" y="-14"/>
      <point x="296" y="24"/>
      <point x="323" y="77" type="curve" smooth="yes"/>
      <point x="365" y="163" type="line"/>
      <point x="361" y="172" type="line"/>
      <point x="330" y="117" type="line" smooth="yes"/>
      <point x="314" y="88"/>
      <point x="252" y="68"/>
      <point x="221" y="68" type="curve" smooth="yes"/>
      <point x="195" y="68"/>
      <point x="142" y="101"/>
      <point x="108" y="101" type="curve" smooth="yes"/>
      <point x="58" y="101"/>
      <point x="-1" y="40"/>
    </contour>
    <contour>
      <point x="52" y="323" type="line"/>
      <point x="81" y="378" type="line" smooth="yes"/>
      <point x="96" y="407"/>
      <point x="147" y="427"/>
      <point x="176" y="427" type="curve" smooth="yes"/>
      <point x="200" y="427"/>
      <point x="250" y="394"/>
      <point x="282" y="394" type="curve" smooth="yes"/>
      <point x="330" y="394"/>
      <point x="365" y="435"/>
      <point x="415" y="493" type="curve"/>
      <point x="386" y="515" type="line"/>
      <point x="370" y="492"/>
      <point x="339" y="476"/>
      <point x="310" y="476" type="curve" smooth="yes"/>
      <point x="293" y="476"/>
      <point x="243" y="509"/>
      <point x="204" y="509" type="curve" smooth="yes"/>
      <point x="157" y="509"/>
      <point x="105" y="471"/>
      <point x="80" y="418" type="curve" smooth="yes"/>
      <point x="40" y="332" type="line"/>
    </contour>
  </outline>
</glyph>
<glyph name="AE" format="2">
  <advance width="789"/>
  <unicode hex="00C6"/>
  <outline>
    <contour>
      <point x="518" y="-2" type="curve" smooth="yes"/>
      <point x="655" y="0" type="line"/>
      <point x="764" y="131" type="line"/>
      <point x="750" y="149" type="line"/>
      <point x="682" y="82"/>
      <point x="624" y="24"/>
      <point x="599" y="24" type="curve" smooth="yes"/>
      <point x="563" y="24"/>
      <point x="505" y="24"/>
      <point x="487" y="24" type="curve" smooth="yes"/>
      <point x="456" y="24"/>
      <point x="438" y="46"/>
      <point x="445" y="76" type="curve" smooth="yes"/>
      <point x="452" y="106"/>
      <point x="569" y="623"/>
      <point x="572" y="635" type="curve" smooth="yes"/>
      <point x="576" y="653"/>
      <point x="599" y="665"/>
      <point x="627" y="665" type="curve" smooth="yes"/>
      <point x="644" y="665"/>
      <point x="681" y="665"/>
      <point x="696" y="665" type="curve" smooth="yes"/>
      <point x="731" y="665"/>
      <point x="768" y="613"/>
      <point x="787" y="539" type="curve"/>
      <point x="810" y="552" type="line"/>
      <point x="787" y="700" type="line"/>
      <point x="703" y="700"/>
      <point x="629" y="698"/>
      <point x="544" y="698" type="curve" smooth="yes"/>
      <point x="504" y="698"/>
      <point x="369" y="700"/>
      <point x="324" y="700" type="curve"/>
      <point x="317" y="672" type="line"/>
      <point x="361" y="672"/>
      <point x="423" y="672"/>
      <point x="447" y="672" type="curve" smooth="yes"/>
      <point x="475" y="672"/>
      <point x="493" y="661"/>
      <point x="486" y="633" type="curve" smooth="yes"/>
      <point x="469" y="559"/>
      <point x="374" y="137"/>
      <point x="364" y="96" type="curve" smooth="yes"/>
      <point x="354" y="50"/>
      <point x="329" y="18"/>
      <point x="303" y="18" type="curve" smooth="yes"/>
      <point x="276" y="18" type="line"/>
      <point x="269" y="0" type="line"/>
      <point x="304" y="0"/>
      <point x="349" y="2"/>
      <point x="380" y="2" type="curve" smooth="yes"/>
      <point x="410" y="2"/>
      <point x="484" y="-2"/>
    </contour>
    <contour>
      <point x="-53" y="0" type="line"/>
      <point x="190" y="0" type="line"/>
      <point x="197" y="18" type="line"/>
      <point x="182" y="18" type="line" smooth="yes"/>
      <point x="149" y="18"/>
      <point x="132" y="48"/>
      <point x="154" y="88" type="curve" smooth="yes"/>
      <point x="491" y="686" type="line"/>
      <point x="463" y="689" type="line"/>
      <point x="262" y="371"/>
      <point x="159" y="202"/>
      <point x="124" y="146" type="curve" smooth="yes"/>
      <point x="79" y="73"/>
      <point x="18" y="18"/>
      <point x="-23" y="18" type="curve" smooth="yes"/>
      <point x="-46" y="18" type="line"/>
    </contour>
    <contour>
      <point x="635" y="200" type="curve"/>
      <point x="658" y="200" type="line"/>
      <point x="671" y="271"/>
      <point x="694" y="371"/>
      <point x="714" y="442" type="curve"/>
      <point x="690" y="442" type="line"/>
      <point x="676" y="379"/>
      <point x="643" y="334"/>
      <point x="612" y="334" type="curve" smooth="yes"/>
      <point x="256" y="334" type="line"/>
      <point x="248" y="310" type="line"/>
      <point x="301" y="310"/>
      <point x="584" y="310"/>
      <point x="605" y="310" type="curve" smooth="yes"/>
      <point x="636" y="310"/>
      <point x="649" y="261"/>
    </contour>
  </outline>
</glyph>
<glyph name="OE" format="2">
  <advance width="969"/>
  <unicode hex="0152"/>
  <outline>
    <contour>
      <point x="270" y="-11" type="curve" smooth="yes"/>
      <point x="445" y="-11"/>
      <point x="602" y="136"/>
      <point x="651" y="345" type="curve" smooth="yes"/>
      <point x="701" y="564"/>
      <point x="614" y="719"/>
      <point x="441" y="719" type="curve" smooth="yes"/>
      <point x="271" y="719"/>
      <point x="115" y="564"/>
      <point x="64" y="345" type="curve" smooth="yes"/>
      <point x="16" y="136"/>
      <point x="101" y="-11"/>
    </contour>
    <contour>
      <point x="291" y="9" type="curve" smooth="yes"/>
      <point x="178" y="9"/>
      <point x="134" y="171"/>
      <point x="183" y="385" type="curve" smooth="yes"/>
      <point x="224" y="563"/>
      <point x="325" y="699"/>
      <point x="428" y="699" type="curve" smooth="yes"/>
      <point x="540" y="699"/>
      <point x="584" y="530"/>
      <point x="532" y="306" type="curve" smooth="yes"/>
      <point x="493" y="138"/>
      <point x="393" y="9"/>
    </contour>
    <contour>
      <point x="794" y="200" type="curve"/>
      <point x="807" y="200" type="line"/>
      <point x="821" y="277"/>
      <point x="846" y="385"/>
      <point x="867" y="462" type="curve"/>
      <point x="854" y="462" type="line"/>
      <point x="839" y="399"/>
      <point x="806" y="354"/>
      <point x="775" y="354" type="curve" smooth="yes"/>
      <point x="597" y="354" type="line"/>
      <point x="593" y="304" type="line"/>
      <point x="647" y="304"/>
      <point x="751" y="304"/>
      <point x="772" y="304" type="curve" smooth="yes"/>
      <point x="799" y="304"/>
      <point x="808" y="261"/>
    </contour>
    <contour>
      <point x="422" y="54" type="curve"/>
      <point x="350" y="-1" type="line"/>
      <point x="846" y="-1" type="line"/>
      <point x="951" y="163" type="line"/>
      <point x="943" y="178" type="line"/>
      <point x="889" y="105"/>
      <point x="823" y="54"/>
      <point x="783" y="54" type="curve" smooth="yes"/>
      <point x="773" y="54"/>
      <point x="464" y="54"/>
    </contour>
    <contour>
      <point x="512" y="700" type="curve"/>
      <point x="525" y="645" type="line"/>
      <point x="557" y="645"/>
      <point x="885" y="645"/>
      <point x="892" y="645" type="curve" smooth="yes"/>
      <point x="944" y="645"/>
      <point x="971" y="598"/>
      <point x="955" y="531" type="curve"/>
      <point x="969" y="531" type="line"/>
      <point x="1008" y="700" type="line"/>
      <point x="951" y="700"/>
      <point x="556" y="700"/>
    </contour>
  </outline>
</glyph>
<glyph name="N.alt" format="2">
  <advance width="767"/>
  <outline>
    <contour>
      <point x="285" y="609" type="curve" smooth="yes"/>
      <point x="537" y="-1" type="line"/>
      <point x="604" y="-1" type="line"/>
      <point x="746" y="614" type="line" smooth="yes"/>
      <point x="759" y="672"/>
      <point x="814" y="672"/>
      <point x="835" y="672" type="curve" smooth="yes"/>
      <point x="856" y="672"/>
      <point x="880" y="672"/>
      <point x="903" y="672" type="curve"/>
      <point x="910" y="700" type="line"/>
      <point x="548" y="700" type="line"/>
      <point x="541" y="672" type="line"/>
      <point x="639" y="672" type="line" smooth="yes"/>
      <point x="657" y="672"/>
      <point x="693" y="647"/>
      <point x="686" y="616" type="curve" smooth="yes"/>
      <point x="679" y="585"/>
      <point x="611" y="289"/>
      <point x="572" y="119" type="curve"/>
      <point x="591" y="101" type="line"/>
      <point x="334" y="702" type="line"/>
      <point x="129" y="702" type="line"/>
      <point x="123" y="674" type="line"/>
      <point x="227" y="674" type="line" smooth="yes"/>
      <point x="254" y="674"/>
      <point x="275" y="632"/>
    </contour>
    <contour>
      <point x="-63" y="4" type="line"/>
      <point x="339" y="4" type="line"/>
      <point x="345" y="28" type="line"/>
      <point x="308" y="28"/>
      <point x="266" y="28"/>
      <point x="233" y="28" type="curve" smooth="yes"/>
      <point x="200" y="28"/>
      <point x="189" y="66"/>
      <point x="199" y="108" type="curve" smooth="yes"/>
      <point x="319" y="627" type="line"/>
      <point x="281" y="702" type="line"/>
      <point x="276" y="702" type="line"/>
      <point x="262" y="640"/>
      <point x="138" y="105"/>
      <point x="136" y="94" type="curve" smooth="yes"/>
      <point x="132" y="77"/>
      <point x="109" y="32"/>
      <point x="80" y="32" type="curve" smooth="yes"/>
      <point x="-57" y="32" type="line"/>
    </contour>
  </outline>
</glyph>
<glyph name="c_t" format="2">
  <advance width="609"/>
  <anchor x="228" y="435" name="top_1"/>
  <anchor x="551" y="435" name="top_2"/>
  <anchor x="96" y="0" name="bottom_1"/>
  <anchor x="419" y="0" name="bottom_2"/>
  <anchor x="323.5" y="0" name="caret_1"/>
  <outline>
    <contour>
      <point x="305" y="344" type="curve"/>
      <point x="315" y="354" type="line"/>
      <point x="290" y="355"/>
      <point x="126" y="580"/>
      <point x="281" y="580" type="curve" smooth="yes"/>
      <point x="347" y="580"/>
      <point x="335" y="526"/>
      <point x="401" y="526" type="curve" smooth="yes"/>
      <point x="435" y="526"/>
      <point x="510" y="577"/>
      <point x="528" y="581" type="curve"/>
      <point x="512" y="599" type="line"/>
      <point x="494" y="595"/>
      <point x="455" y="566"/>
      <point x="441" y="566" type="curve" smooth="yes"/>
      <point x="375" y="566"/>
      <point x="387" y="620"/>
      <point x="321" y="620" type="curve" smooth="yes"/>
      <point x="63" y="620"/>
      <point x="259" y="344"/>
    </contour>
    <component base="c"/>
    <component base="t" xOffset="365"/>
  </outline>
</glyph>
<glyph name="f_f" format="2">
  <advance width="518"/>
  <outline>
    <contour>
      <point x="-27" y="-208" type="curve" smooth="yes"/>
      <point x="38" y="-208"/>
      <point x="120" y="-63"/>
      <point x="157" y="142" type="curve" smooth="yes"/>
      <point x="222" y="507" type="line" smooth="yes"/>
      <point x="240" y="608"/>
      <point x="259" y="690"/>
      <point x="296" y="690" type="curve" smooth="yes"/>
      <point x="328" y="690"/>
      <point x="329" y="639"/>
      <point x="314" y="581" type="curve" smooth="yes"/>
      <point x="310" y="568"/>
      <point x="314" y="558"/>
      <point x="324" y="558" type="curve" smooth="yes"/>
      <point x="357" y="558"/>
      <point x="386" y="578"/>
      <point x="393" y="606" type="curve" smooth="yes"/>
      <point x="407" y="663"/>
      <point x="379" y="703"/>
      <point x="311" y="703" type="curve" smooth="yes"/>
      <point x="222" y="703"/>
      <point x="163" y="616"/>
      <point x="141" y="493" type="curve" smooth="yes"/>
      <point x="76" y="128" type="line" smooth="yes"/>
      <point x="42" y="-58"/>
      <point x="-1" y="-195"/>
      <point x="-12" y="-195" type="curve" smooth="yes"/>
      <point x="-44" y="-195"/>
      <point x="-55" y="-144"/>
      <point x="-40" y="-86" type="curve" smooth="yes"/>
      <point x="-36" y="-73"/>
      <point x="-40" y="-63"/>
      <point x="-50" y="-63" type="curve" smooth="yes"/>
      <point x="-83" y="-63"/>
      <point x="-112" y="-83"/>
      <point x="-119" y="-111" type="curve" smooth="yes"/>
      <point x="-133" y="-168"/>
      <point x="-95" y="-208"/>
    </contour>
    <contour>
      <point x="52" y="408" type="line"/>
      <point x="316" y="408" type="line"/>
      <point x="329" y="450" type="line"/>
      <point x="65" y="450" type="line"/>
    </contour>
    <component base="f" xOffset="234"/>
  </outline>
</glyph>
<glyph name="f_i" format="2">
  <advance width="460"/>
  <outline>
    <contour>
      <point x="-27" y="-208" type="curve" smooth="yes"/>
      <point x="38" y="-208"/>
      <point x="121" y="-63"/>
      <point x="157" y="142" type="curve" smooth="yes"/>
      <point x="222" y="517" type="line" smooth="yes"/>
      <point x="240" y="618"/>
      <point x="319" y="690"/>
      <point x="356" y="690" type="curve" smooth="yes"/>
      <point x="428" y="690"/>
      <point x="419" y="639"/>
      <point x="404" y="581" type="curve" smooth="yes"/>
      <point x="400" y="568"/>
      <point x="404" y="558"/>
      <point x="414" y="558" type="curve" smooth="yes"/>
      <point x="447" y="558"/>
      <point x="496" y="578"/>
      <point x="503" y="606" type="curve" smooth="yes"/>
      <point x="517" y="663"/>
      <point x="479" y="703"/>
      <point x="371" y="703" type="curve" smooth="yes"/>
      <point x="282" y="703"/>
      <point x="162" y="616"/>
      <point x="141" y="493" type="curve" smooth="yes"/>
      <point x="76" y="118" type="line" smooth="yes"/>
      <point x="42" y="-68"/>
      <point x="-1" y="-195"/>
      <point x="-12" y="-195" type="curve" smooth="yes"/>
      <point x="-44" y="-195"/>
      <point x="-55" y="-144"/>
      <point x="-40" y="-86" type="curve" smooth="yes"/>
      <point x="-36" y="-73"/>
      <point x="-40" y="-63"/>
      <point x="-50" y="-63" type="curve" smooth="yes"/>
      <point x="-83" y="-63"/>
      <point x="-112" y="-83"/>
      <point x="-119" y="-111" type="curve" smooth="yes"/>
      <point x="-133" y="-168"/>
      <point x="-95" y="-208"/>
    </contour>
    <contour>
      <point x="52" y="408" type="line"/>
      <point x="296" y="408" type="line"/>
      <point x="309" y="450" type="line"/>
      <point x="65" y="450" type="line"/>
    </contour>
    <contour>
      <point x="287" y="-8" type="curve" smooth="yes"/>
      <point x="347" y="-8"/>
      <point x="427" y="86"/>
      <point x="480" y="218" type="curve"/>
      <point x="450" y="208" type="line"/>
      <point x="413" y="117"/>
      <point x="370" y="52"/>
      <point x="346" y="52" type="curve" smooth="yes"/>
      <point x="327" y="52"/>
      <point x="333" y="113"/>
      <point x="360" y="185" type="curve" smooth="yes"/>
      <point x="428" y="369" type="line" smooth="yes"/>
      <point x="446" y="419"/>
      <point x="437" y="451"/>
      <point x="401" y="451" type="curve" smooth="yes"/>
      <point x="309" y="450" type="line"/>
      <point x="295" y="408" type="line"/>
      <point x="312" y="408"/>
      <point x="325" y="409"/>
      <point x="347" y="409" type="curve" smooth="yes"/>
      <point x="358" y="409"/>
      <point x="346" y="359"/>
      <point x="320" y="286" type="curve" smooth="yes"/>
      <point x="269" y="143" type="line" smooth="yes"/>
      <point x="238" y="56"/>
      <point x="243" y="-8"/>
    </contour>
  </outline>
</glyph>
<glyph name="s.hist" format="2">
  <advance width="224"/>
  <outline>
    <contour>
      <point x="-90" y="-208" type="curve" smooth="yes"/>
      <point x="-2" y="-208"/>
      <point x="75" y="-60"/>
      <point x="123" y="149" type="curve" smooth="yes"/>
      <point x="206" y="507" type="line" smooth="yes"/>
      <point x="230" y="608"/>
      <point x="273" y="690"/>
      <point x="309" y="690" type="curve" smooth="yes"/>
      <point x="340" y="690"/>
      <point x="350" y="639"/>
      <point x="333" y="581" type="curve" smooth="yes"/>
      <point x="328" y="568"/>
      <point x="332" y="558"/>
      <point x="342" y="558" type="curve" smooth="yes"/>
      <point x="376" y="558"/>
      <point x="405" y="578"/>
      <point x="413" y="606" type="curve" smooth="yes"/>
      <point x="430" y="663"/>
      <point x="394" y="703"/>
      <point x="326" y="703" type="curve" smooth="yes"/>
      <point x="237" y="703"/>
      <point x="154" y="616"/>
      <point x="125" y="493" type="curve" smooth="yes"/>
      <point x="42" y="132" type="line" smooth="yes"/>
      <point x="-1" y="-54"/>
      <point x="-37" y="-195"/>
      <point x="-73" y="-195" type="curve" smooth="yes"/>
      <point x="-104" y="-195"/>
      <point x="-114" y="-144"/>
      <point x="-97" y="-86" type="curve" smooth="yes"/>
      <point x="-92" y="-73"/>
      <point x="-96" y="-63"/>
      <point x="-106" y="-63" type="curve" smooth="yes"/>
      <point x="-140" y="-63"/>
      <point x="-169" y="-83"/>
      <point x="-177" y="-111" type="curve" smooth="yes"/>
      <point x="-194" y="-168"/>
      <point x="-158" y="-208"/>
    </contour>
  </outline>
</glyph>
<glyph name="s_t" format="2">
  <advance width="609"/>
  <outline>
    <contour>
      <point x="285" y="344" type="curve"/>
      <point x="295" y="354" type="line"/>
      <point x="270" y="355"/>
      <point x="78" y="580"/>
      <point x="273" y="580" type="curve" smooth="yes"/>
      <point x="339" y="580"/>
      <point x="337" y="526"/>
      <point x="403" y="526" type="curve" smooth="yes"/>
      <point x="437" y="526"/>
      <point x="511" y="577"/>
      <point x="557" y="581" type="curve"/>
      <point x="513" y="599" type="line"/>
      <point x="495" y="595"/>
      <point x="457" y="566"/>
      <point x="443" y="566" type="curve" smooth="yes"/>
      <point x="377" y="566"/>
      <point x="379" y="620"/>
      <point x="313" y="620" type="curve" smooth="yes"/>
      <point x="15" y="620"/>
      <point x="239" y="344"/>
    </contour>
    <component base="s"/>
    <component base="t" xOffset="365"/>
  </outline>
</glyph>
